<svg width="17" height="17" viewBox="0 0 17 17" fill="none" xmlns="http://www.w3.org/2000/svg">
<path d="M16.0234 2.61579V4.9415H0.0234375V2.61579C0.0293133 2.16662 0.213085 1.73811 0.53445 1.42424C0.855816 1.11038 1.28854 0.936772 1.73772 0.9415H2.88058V2.08436C2.88058 2.53901 3.06119 2.97505 3.38268 3.29654C3.70417 3.61803 4.14021 3.79864 4.59487 3.79864C5.04952 3.79864 5.48556 3.61803 5.80705 3.29654C6.12854 2.97505 6.30915 2.53901 6.30915 2.08436V0.9415H9.73772V2.08436C9.73772 2.53901 9.91833 2.97505 10.2398 3.29654C10.5613 3.61803 10.9974 3.79864 11.452 3.79864C11.9067 3.79864 12.3427 3.61803 12.6642 3.29654C12.9857 2.97505 13.1663 2.53901 13.1663 2.08436V0.9415H14.3092C14.7583 0.936772 15.1911 1.11038 15.5124 1.42424C15.8338 1.73811 16.0176 2.16662 16.0234 2.61579ZM0.0234375 6.08436V15.2672C0.0293133 15.7164 0.213085 16.1449 0.53445 16.4588C0.855816 16.7726 1.28854 16.9462 1.73772 16.9415H14.3092C14.7583 16.9462 15.1911 16.7726 15.5124 16.4588C15.8338 16.1449 16.0176 15.7164 16.0234 15.2672V6.08436H0.0234375ZM5.1663 14.0844C5.16584 14.2358 5.10549 14.3809 4.99843 14.4879C4.89136 14.595 4.74628 14.6553 4.59487 14.6558H3.45201C3.3006 14.6553 3.15551 14.595 3.04845 14.4879C2.94138 14.3809 2.88103 14.2358 2.88058 14.0844V12.9415C2.88103 12.7901 2.94138 12.645 3.04845 12.5379C3.15551 12.4309 3.3006 12.3705 3.45201 12.3701H4.59487C4.74628 12.3705 4.89136 12.4309 4.99843 12.5379C5.10549 12.645 5.16584 12.7901 5.1663 12.9415V14.0844ZM5.1663 10.0844C5.16584 10.2358 5.10549 10.3809 4.99843 10.4879C4.89136 10.595 4.74628 10.6553 4.59487 10.6558H3.45201C3.3006 10.6553 3.15551 10.595 3.04845 10.4879C2.94138 10.3809 2.88103 10.2358 2.88058 10.0844V8.9415C2.88103 8.79009 2.94138 8.64501 3.04845 8.53794C3.15551 8.43087 3.3006 8.37052 3.45201 8.37007H4.59487C4.74628 8.37052 4.89136 8.43087 4.99843 8.53794C5.10549 8.64501 5.16584 8.79009 5.1663 8.9415V10.0844ZM9.1663 14.0844C9.16584 14.2358 9.10549 14.3809 8.99843 14.4879C8.89136 14.595 8.74628 14.6553 8.59487 14.6558H7.45201C7.3006 14.6553 7.15551 14.595 7.04845 14.4879C6.94138 14.3809 6.88103 14.2358 6.88058 14.0844V12.9415C6.88103 12.7901 6.94138 12.645 7.04845 12.5379C7.15551 12.4309 7.3006 12.3705 7.45201 12.3701H8.59487C8.74628 12.3705 8.89136 12.4309 8.99843 12.5379C9.10549 12.645 9.16584 12.7901 9.1663 12.9415V14.0844ZM9.1663 10.0844C9.16584 10.2358 9.10549 10.3809 8.99843 10.4879C8.89136 10.595 8.74628 10.6553 8.59487 10.6558H7.45201C7.3006 10.6553 7.15551 10.595 7.04845 10.4879C6.94138 10.3809 6.88103 10.2358 6.88058 10.0844V8.9415C6.88103 8.79009 6.94138 8.64501 7.04845 8.53794C7.15551 8.43087 7.3006 8.37052 7.45201 8.37007H8.59487C8.74628 8.37052 8.89136 8.43087 8.99843 8.53794C9.10549 8.64501 9.16584 8.79009 9.1663 8.9415V10.0844ZM13.1663 10.0844C13.1658 10.2358 13.1055 10.3809 12.9984 10.4879C12.8914 10.595 12.7463 10.6553 12.5949 10.6558H11.452C11.3006 10.6553 11.1555 10.595 11.0484 10.4879C10.9414 10.3809 10.881 10.2358 10.8806 10.0844V8.9415C10.881 8.79009 10.9414 8.64501 11.0484 8.53794C11.1555 8.43087 11.3006 8.37052 11.452 8.37007H12.5949C12.7463 8.37052 12.8914 8.43087 12.9984 8.53794C13.1055 8.64501 13.1658 8.79009 13.1663 8.9415V10.0844Z" fill="#272727"/>
<path d="M5.16629 0.942522V2.08538C5.16629 2.23693 5.10609 2.38228 4.99893 2.48944C4.89176 2.5966 4.74642 2.65681 4.59487 2.65681C4.44331 2.65681 4.29797 2.5966 4.19081 2.48944C4.08364 2.38228 4.02344 2.23693 4.02344 2.08538V0.942522C4.02344 0.79097 4.08364 0.645625 4.19081 0.538461C4.29797 0.431298 4.44331 0.371094 4.59487 0.371094C4.74642 0.371094 4.89176 0.431298 4.99893 0.538461C5.10609 0.645625 5.16629 0.79097 5.16629 0.942522ZM12.0234 0.942522V2.08538C12.0234 2.23693 11.9632 2.38228 11.8561 2.48944C11.7489 2.5966 11.6036 2.65681 11.452 2.65681C11.3005 2.65681 11.1551 2.5966 11.0479 2.48944C10.9408 2.38228 10.8806 2.23693 10.8806 2.08538V0.942522C10.8806 0.79097 10.9408 0.645625 11.0479 0.538461C11.1551 0.431298 11.3005 0.371094 11.452 0.371094C11.6036 0.371094 11.7489 0.431298 11.8561 0.538461C11.9632 0.645625 12.0234 0.79097 12.0234 0.942522Z" fill="#272727"/>
</svg>
