<svg xmlns="http://www.w3.org/2000/svg" width="17" height="17" viewBox="0 0 17 17" fill="none">
  <path d="M8.92773 16.457C13.346 16.457 16.9277 12.8753 16.9277 8.45703C16.9277 4.03875 13.346 0.457031 8.92773 0.457031C4.50946 0.457031 0.927734 4.03875 0.927734 8.45703C0.927734 12.8753 4.50946 16.457 8.92773 16.457Z" fill="#32BA7C"/>
  <path d="M9.12943 10.2492C9.48274 10.6025 9.48274 11.2082 9.12943 11.5615L8.39757 12.2933C8.04426 12.6467 7.43858 12.6467 7.08527 12.2933L3.88022 9.06305C3.52691 8.70974 3.52691 8.10406 3.88022 7.75075L4.61208 7.01889C4.96539 6.66558 5.57107 6.66558 5.92438 7.01889L9.12943 10.2492Z" fill="white"/>
  <path d="M11.9303 4.67123C12.2836 4.31792 12.8893 4.31792 13.2426 4.67123L13.9745 5.4031C14.3278 5.75641 14.3278 6.36209 13.9745 6.7154L8.42243 12.2422C8.06912 12.5955 7.46344 12.5955 7.11013 12.2422L6.37827 11.5104C6.02495 11.157 6.02495 10.5514 6.37827 10.198L11.9303 4.67123Z" fill="white"/>
</svg>