<svg xmlns="http://www.w3.org/2000/svg" width="49" height="48" viewBox="0 0 49 48" fill="none">
  <path fill-rule="evenodd" clip-rule="evenodd" d="M48.5645 27.6942V30.2292C48.5645 30.6145 48.3282 30.9389 47.9635 31.058L46.3023 31.597C46.0388 31.6823 45.8504 31.8652 45.7548 32.123C45.6695 32.3489 45.5795 32.572 45.4782 32.7877C45.361 33.0398 45.3666 33.3033 45.4941 33.5508L46.2863 35.1052C46.4588 35.4483 46.3979 35.8467 46.127 36.1177L44.3335 37.9111C44.0626 38.182 43.6641 38.243 43.321 38.0705L41.7666 37.2783C41.5191 37.1508 41.2566 37.1452 41.0035 37.2623C40.7879 37.3636 40.5648 37.4536 40.3388 37.5389C40.081 37.6345 39.8973 37.823 39.8129 38.0864L39.2738 39.7477C39.1698 40.0664 38.9073 40.2895 38.5829 40.3373L37.1823 33.2339C39.5391 33.2311 41.4498 31.3205 41.4498 28.9608C41.4498 26.6011 39.5363 24.6905 37.1766 24.6905C35.3429 24.6905 33.7773 25.8464 33.1716 27.4702C33.1154 27.4542 33.0573 27.4355 32.9991 27.4223L28.3163 26.1895C28.4438 26.0939 28.5395 25.9608 28.6004 25.7986C28.6829 25.5727 28.7757 25.3523 28.8741 25.1339C28.9913 24.8845 28.9857 24.6183 28.861 24.3736L28.0688 22.8164C27.8935 22.4733 27.9573 22.0748 28.2282 21.8039L30.0198 20.0123C30.2935 19.7414 30.6891 19.6777 31.0323 19.853L32.5895 20.6452C32.8341 20.7698 33.0995 20.7755 33.3498 20.6583C33.5673 20.5598 33.7885 20.467 34.0145 20.3845C34.2751 20.2889 34.456 20.0977 34.5404 19.8342L35.0795 18.1758C35.1995 17.8092 35.5257 17.573 35.9082 17.573H38.4432C38.8285 17.573 39.1529 17.8092 39.272 18.1758L39.811 19.8342C39.8963 20.0977 40.0791 20.2889 40.337 20.3845C40.5629 20.467 40.786 20.5598 41.0016 20.6583C41.2538 20.7755 41.5173 20.7698 41.7648 20.6452L43.3191 19.853C43.6623 19.6777 44.0607 19.7414 44.3316 20.0123L46.127 21.8048C46.3979 22.0758 46.4588 22.4742 46.2863 22.8173L45.4941 24.3745C45.3666 24.6192 45.361 24.8845 45.4782 25.1348C45.5795 25.3523 45.6695 25.5736 45.7548 25.7995C45.8504 26.0602 46.0388 26.2411 46.3023 26.3255L47.9635 26.8645C48.3273 26.9845 48.5645 27.3117 48.5645 27.6942ZM37.5516 42.982C37.5995 43.2314 37.6238 43.4817 37.6238 43.7236C37.6238 44.6142 37.3079 45.4486 36.7679 46.102C36.2307 46.7583 35.4741 47.2317 34.5966 47.4042C34.3548 47.452 34.1073 47.4764 33.8551 47.4764H30.5729C30.5916 47.3995 30.6048 47.3198 30.6151 47.2373L32.1985 34.0458C32.281 33.3492 32.0654 32.6611 31.6004 32.138C31.1298 31.6092 30.482 31.3167 29.7751 31.3167H8.41508C7.7082 31.3167 7.05664 31.6092 6.58977 32.138C6.12477 32.6611 5.90914 33.3502 5.99164 34.0458L7.60414 47.4764H4.33602C4.08383 47.4764 3.83352 47.452 3.59445 47.4042C2.71789 47.2317 1.96039 46.7583 1.4232 46.102C0.883203 45.4486 0.564453 44.6142 0.564453 43.7236C0.564453 43.4817 0.588828 43.2323 0.638516 42.982L2.84258 31.8108C2.9832 31.0908 3.3132 30.4552 3.7857 29.9508C4.25633 29.4483 4.86758 29.0845 5.57914 28.8961L11.8323 27.2508C12.0479 27.1945 12.2363 27.1177 12.4032 27.0192C12.571 26.9208 12.7304 26.7933 12.8813 26.6311L14.3485 25.1002V24.1298C14.3485 24.1195 14.3513 24.1064 14.3513 24.0923C13.8606 23.776 13.403 23.411 12.9854 23.003C11.5454 21.5995 10.5807 19.7048 10.3707 17.5973C9.79695 17.4511 9.28414 17.1455 8.88289 16.7339C8.32789 16.1602 7.98477 15.3811 7.98477 14.5233C7.98477 13.7311 8.27164 13.0083 8.74977 12.4533V7.47609C8.74977 6.43922 9.17258 5.49609 9.85227 4.81359C10.4345 4.23422 11.2023 3.84141 12.0582 3.73734C12.1801 2.92172 12.5635 2.19047 13.1213 1.63266C13.8048 0.949219 14.7451 0.527344 15.7838 0.527344H20.7563C23.1479 0.527344 25.3191 1.50234 26.8923 3.07547C28.4654 4.64859 29.4404 6.81984 29.4404 9.21141V12.4533C29.9185 13.0083 30.2054 13.7311 30.2054 14.5233C30.2054 15.382 29.8623 16.1602 29.3073 16.7339C28.906 17.1455 28.3932 17.4511 27.8195 17.5973C27.6066 19.7048 26.6448 21.5995 25.2048 23.003C24.7872 23.411 24.3295 23.776 23.8388 24.0923V25.1002L25.306 26.6311C25.4598 26.7933 25.6173 26.9208 25.7841 27.0192C25.9538 27.1177 26.1432 27.1945 26.3579 27.2508L32.611 28.8961C33.3207 29.0845 33.932 29.4492 34.4045 29.9508C34.8779 30.4561 35.2041 31.0908 35.3476 31.8108L37.5516 42.982ZM19.0951 23.9733C21.0535 23.9733 22.8366 23.1867 24.1445 21.9136C25.457 20.6358 26.2895 18.8705 26.3391 16.9233C26.3429 16.728 26.4218 16.5417 26.5594 16.4031C26.697 16.2645 26.8827 16.1842 27.0779 16.1789C27.5241 16.1658 27.9254 15.9745 28.2179 15.6736C28.5048 15.3783 28.6829 14.9723 28.6829 14.5233C28.6829 14.0658 28.4973 13.6514 28.1963 13.3514C27.8991 13.0542 27.4838 12.8677 27.0273 12.8677C26.926 12.8677 26.8304 12.8752 26.746 12.8892C26.6663 12.9023 26.5923 12.9211 26.5145 12.9473C26.4263 12.9848 26.3288 13.0036 26.2248 13.0036C25.8048 13.0036 25.4616 12.6633 25.4616 12.2433V10.9758C25.4616 10.7339 25.4213 10.5164 25.3398 10.3195C25.2573 10.1198 25.1298 9.93703 24.962 9.76922C24.7923 9.60141 24.6085 9.47672 24.4088 9.39703C24.2045 9.31453 23.986 9.27516 23.7498 9.27516C22.052 9.29109 20.4329 9.22453 18.9076 9.06516C17.3898 8.90578 15.9601 8.65547 14.6288 8.30203C13.576 8.29641 13.1935 10.447 12.917 11.9958L12.8448 12.3867C12.8373 12.4533 12.8204 12.5198 12.7941 12.5836C12.632 12.9717 12.1857 13.1545 11.8004 12.9952C11.6998 12.9521 11.5948 12.92 11.4873 12.8995C11.3813 12.878 11.2716 12.8677 11.1601 12.8677C10.7026 12.8677 10.2882 13.0533 9.9882 13.3514C9.69102 13.6514 9.50445 14.0667 9.50445 14.5233C9.50445 14.9723 9.68258 15.3792 9.96945 15.6736C10.262 15.9736 10.6632 16.1648 11.1066 16.1789C11.5079 16.1892 11.8379 16.5136 11.8454 16.9205C11.896 18.8686 12.7304 20.6358 14.0401 21.9136C15.3507 23.1867 17.1338 23.9733 19.0951 23.9733ZM22.3163 24.8827C21.317 25.2783 20.2304 25.4995 19.0951 25.4995C17.9598 25.4995 16.8732 25.2792 15.8738 24.8827V25.7573C15.8738 26.648 16.2357 27.4523 16.817 28.0345C17.3991 28.6167 18.2045 28.9777 19.0941 28.9777C19.9838 28.9777 20.7891 28.6167 21.3713 28.0345C21.9535 27.4523 22.3145 26.647 22.3145 25.7573V24.8827H22.3163ZM30.6845 33.8648L29.101 47.0564C29.0748 47.2983 28.8723 47.4764 28.6276 47.4764H9.13789L7.50383 33.8648C7.47195 33.5967 7.54883 33.352 7.72977 33.1477C7.9107 32.9461 8.14414 32.8392 8.41508 32.8392H29.776C30.047 32.8392 30.2813 32.9452 30.4613 33.1477C30.6423 33.352 30.7163 33.5958 30.6845 33.8648ZM20.7854 40.1573C20.7854 39.2273 20.0251 38.467 19.0951 38.467C18.1623 38.467 17.402 39.2273 17.402 40.1573C17.402 41.0902 18.1623 41.8477 19.0951 41.8477C20.0251 41.8477 20.7854 41.0902 20.7854 40.1573Z" fill="#272727"/>
</svg>