<svg xmlns="http://www.w3.org/2000/svg" width="773" height="422" viewBox="0 0 773 422" fill="none">
  <path opacity="0.3" d="M1 0C0.447715 0 0 0.447715 0 1C0 1.55228 0.447715 2 1 2V0ZM766.113 29.1274C765.723 28.7369 765.09 28.7369 764.699 29.1274L758.335 35.4914C757.945 35.8819 757.945 36.5151 758.335 36.9056C758.726 37.2961 759.359 37.2961 759.749 36.9056L765.406 31.2487L771.063 36.9056C771.454 37.2961 772.087 37.2961 772.477 36.9056C772.868 36.5151 772.868 35.8819 772.477 35.4914L766.113 29.1274ZM4.67674 2C5.22902 2 5.67674 1.55228 5.67674 1C5.67674 0.447715 5.22902 0 4.67674 0V2ZM12.0302 0C11.4779 0 11.0302 0.447715 11.0302 1C11.0302 1.55228 11.4779 2 12.0302 2V0ZM19.3837 2C19.936 2 20.3837 1.55228 20.3837 1C20.3837 0.447715 19.936 0 19.3837 0V2ZM26.7372 0C26.1849 0 25.7372 0.447715 25.7372 1C25.7372 1.55228 26.1849 2 26.7372 2V0ZM33.4779 2.11854C34.0286 2.16132 34.5096 1.74963 34.5524 1.199C34.5952 0.648374 34.1835 0.167327 33.6328 0.12455L33.4779 2.11854ZM39.9885 1.12421C39.4513 0.995697 38.9117 1.32695 38.7832 1.86407C38.6547 2.4012 38.986 2.9408 39.5231 3.06931L39.9885 1.12421ZM45.3424 4.95895C45.8525 5.1705 46.4376 4.92843 46.6492 4.41828C46.8607 3.90812 46.6186 3.32305 46.1085 3.1115L45.3424 4.95895ZM51.8396 6.03709C51.369 5.74808 50.7532 5.89531 50.4642 6.36594C50.1751 6.83657 50.3224 7.45238 50.793 7.74139L51.8396 6.03709ZM55.7423 11.3431C56.1621 11.702 56.7934 11.6526 57.1522 11.2328C57.5111 10.813 57.4617 10.1818 57.0419 9.82292L55.7423 11.3431ZM61.591 14.372C61.2321 13.9522 60.6009 13.9028 60.1811 14.2617C59.7613 14.6206 59.7119 15.2518 60.0708 15.6716L61.591 14.372ZM63.6725 20.6209C63.9615 21.0915 64.5773 21.2388 65.048 20.9498C65.5186 20.6608 65.6658 20.0449 65.3768 19.5743L63.6725 20.6209ZM68.3024 25.3054C68.0909 24.7953 67.5058 24.5532 66.9956 24.7648C66.4855 24.9763 66.2434 25.5614 66.455 26.0715L68.3024 25.3054ZM68.3446 31.8908C68.4731 32.428 69.0127 32.7592 69.5498 32.6307C70.087 32.5022 70.4182 31.9626 70.2897 31.4255L68.3446 31.8908ZM71.2894 37.7811C71.2466 37.2305 70.7655 36.8188 70.2149 36.8615C69.6643 36.9043 69.2526 37.3854 69.2954 37.936L71.2894 37.7811ZM69.4139 44.0347C69.4139 44.587 69.8616 45.0347 70.4139 45.0347C70.9662 45.0347 71.4139 44.587 71.4139 44.0347H69.4139ZM71.4139 50.1041C71.4139 49.5518 70.9662 49.1041 70.4139 49.1041C69.8616 49.1041 69.4139 49.5518 69.4139 50.1041H71.4139ZM69.4139 56.1735C69.4139 56.7258 69.8616 57.1735 70.4139 57.1735C70.9662 57.1735 71.4139 56.7258 71.4139 56.1735H69.4139ZM71.4139 62.243C71.4139 61.6907 70.9662 61.243 70.4139 61.243C69.8616 61.243 69.4139 61.6907 69.4139 62.243H71.4139ZM69.4139 68.3124C69.4139 68.8647 69.8616 69.3124 70.4139 69.3124C70.9662 69.3124 71.4139 68.8647 71.4139 68.3124H69.4139ZM71.4139 74.3818C71.4139 73.8295 70.9662 73.3818 70.4139 73.3818C69.8616 73.3818 69.4139 73.8295 69.4139 74.3818H71.4139ZM69.4139 80.4512C69.4139 81.0035 69.8616 81.4512 70.4139 81.4512C70.9662 81.4512 71.4139 81.0035 71.4139 80.4512H69.4139ZM71.4139 86.5206C71.4139 85.9684 70.9662 85.5206 70.4139 85.5206C69.8616 85.5206 69.4139 85.9684 69.4139 86.5206H71.4139ZM69.4139 92.5901C69.4139 93.1423 69.8616 93.5901 70.4139 93.5901C70.9662 93.5901 71.4139 93.1423 71.4139 92.5901H69.4139ZM71.4139 98.6595C71.4139 98.1072 70.9662 97.6595 70.4139 97.6595C69.8616 97.6595 69.4139 98.1072 69.4139 98.6595H71.4139ZM69.4139 104.729C69.4139 105.281 69.8616 105.729 70.4139 105.729C70.9662 105.729 71.4139 105.281 71.4139 104.729H69.4139ZM71.4139 110.798C71.4139 110.246 70.9662 109.798 70.4139 109.798C69.8616 109.798 69.4139 110.246 69.4139 110.798H71.4139ZM69.4139 116.868C69.4139 117.42 69.8616 117.868 70.4139 117.868C70.9662 117.868 71.4139 117.42 71.4139 116.868H69.4139ZM71.4139 122.937C71.4139 122.385 70.9662 121.937 70.4139 121.937C69.8616 121.937 69.4139 122.385 69.4139 122.937H71.4139ZM69.4139 129.007C69.4139 129.559 69.8616 130.007 70.4139 130.007C70.9662 130.007 71.4139 129.559 71.4139 129.007H69.4139ZM71.4139 135.076C71.4139 134.524 70.9662 134.076 70.4139 134.076C69.8616 134.076 69.4139 134.524 69.4139 135.076H71.4139ZM69.4139 141.145C69.4139 141.698 69.8616 142.145 70.4139 142.145C70.9662 142.145 71.4139 141.698 71.4139 141.145H69.4139ZM71.4139 147.215C71.4139 146.663 70.9662 146.215 70.4139 146.215C69.8616 146.215 69.4139 146.663 69.4139 147.215H71.4139ZM69.4139 153.284C69.4139 153.837 69.8616 154.284 70.4139 154.284C70.9662 154.284 71.4139 153.837 71.4139 153.284H69.4139ZM71.4139 159.354C71.4139 158.801 70.9662 158.354 70.4139 158.354C69.8616 158.354 69.4139 158.801 69.4139 159.354H71.4139ZM69.4139 165.423C69.4139 165.975 69.8616 166.423 70.4139 166.423C70.9662 166.423 71.4139 165.975 71.4139 165.423H69.4139ZM71.4139 171.493C71.4139 170.94 70.9662 170.493 70.4139 170.493C69.8616 170.493 69.4139 170.94 69.4139 171.493H71.4139ZM69.4139 177.562C69.4139 178.114 69.8616 178.562 70.4139 178.562C70.9662 178.562 71.4139 178.114 71.4139 177.562H69.4139ZM71.4139 183.631C71.4139 183.079 70.9662 182.631 70.4139 182.631C69.8616 182.631 69.4139 183.079 69.4139 183.631H71.4139ZM69.4139 189.701C69.4139 190.253 69.8616 190.701 70.4139 190.701C70.9662 190.701 71.4139 190.253 71.4139 189.701H69.4139ZM71.4139 195.77C71.4139 195.218 70.9662 194.77 70.4139 194.77C69.8616 194.77 69.4139 195.218 69.4139 195.77H71.4139ZM69.4139 201.84C69.4139 202.392 69.8616 202.84 70.4139 202.84C70.9662 202.84 71.4139 202.392 71.4139 201.84H69.4139ZM71.4139 207.909C71.4139 207.357 70.9662 206.909 70.4139 206.909C69.8616 206.909 69.4139 207.357 69.4139 207.909H71.4139ZM69.4139 213.978C69.4139 214.531 69.8616 214.978 70.4139 214.978C70.9662 214.978 71.4139 214.531 71.4139 213.978H69.4139ZM71.4139 220.048C71.4139 219.496 70.9662 219.048 70.4139 219.048C69.8616 219.048 69.4139 219.496 69.4139 220.048H71.4139ZM69.4139 226.117C69.4139 226.67 69.8616 227.117 70.4139 227.117C70.9662 227.117 71.4139 226.67 71.4139 226.117H69.4139ZM71.4139 232.187C71.4139 231.634 70.9662 231.187 70.4139 231.187C69.8616 231.187 69.4139 231.634 69.4139 232.187H71.4139ZM69.4139 238.256C69.4139 238.808 69.8616 239.256 70.4139 239.256C70.9662 239.256 71.4139 238.808 71.4139 238.256H69.4139ZM71.4139 244.325C71.4139 243.773 70.9662 243.325 70.4139 243.325C69.8616 243.325 69.4139 243.773 69.4139 244.325H71.4139ZM69.4139 250.395C69.4139 250.947 69.8616 251.395 70.4139 251.395C70.9662 251.395 71.4139 250.947 71.4139 250.395H69.4139ZM71.4139 256.464C71.4139 255.912 70.9662 255.464 70.4139 255.464C69.8616 255.464 69.4139 255.912 69.4139 256.464H71.4139ZM69.4139 262.534C69.4139 263.086 69.8616 263.534 70.4139 263.534C70.9662 263.534 71.4139 263.086 71.4139 262.534H69.4139ZM71.4139 268.603C71.4139 268.051 70.9662 267.603 70.4139 267.603C69.8616 267.603 69.4139 268.051 69.4139 268.603H71.4139ZM69.4139 274.673C69.4139 275.225 69.8616 275.673 70.4139 275.673C70.9662 275.673 71.4139 275.225 71.4139 274.673H69.4139ZM71.4139 280.742C71.4139 280.19 70.9662 279.742 70.4139 279.742C69.8616 279.742 69.4139 280.19 69.4139 280.742H71.4139ZM69.4139 286.811C69.4139 287.364 69.8616 287.811 70.4139 287.811C70.9662 287.811 71.4139 287.364 71.4139 286.811H69.4139ZM71.4139 292.881C71.4139 292.328 70.9662 291.881 70.4139 291.881C69.8616 291.881 69.4139 292.328 69.4139 292.881H71.4139ZM69.4139 298.95C69.4139 299.502 69.8616 299.95 70.4139 299.95C70.9662 299.95 71.4139 299.502 71.4139 298.95H69.4139ZM71.4139 305.02C71.4139 304.467 70.9662 304.02 70.4139 304.02C69.8616 304.02 69.4139 304.467 69.4139 305.02H71.4139ZM69.4139 311.089C69.4139 311.641 69.8616 312.089 70.4139 312.089C70.9662 312.089 71.4139 311.641 71.4139 311.089H69.4139ZM71.4139 317.158C71.4139 316.606 70.9662 316.158 70.4139 316.158C69.8616 316.158 69.4139 316.606 69.4139 317.158H71.4139ZM69.4139 323.228C69.4139 323.78 69.8616 324.228 70.4139 324.228C70.9662 324.228 71.4139 323.78 71.4139 323.228H69.4139ZM71.4139 329.297C71.4139 328.745 70.9662 328.297 70.4139 328.297C69.8616 328.297 69.4139 328.745 69.4139 329.297H71.4139ZM69.4139 335.367C69.4139 335.919 69.8616 336.367 70.4139 336.367C70.9662 336.367 71.4139 335.919 71.4139 335.367H69.4139ZM71.4139 341.436C71.4139 340.884 70.9662 340.436 70.4139 340.436C69.8616 340.436 69.4139 340.884 69.4139 341.436H71.4139ZM69.4139 347.506C69.4139 348.058 69.8616 348.506 70.4139 348.506C70.9662 348.506 71.4139 348.058 71.4139 347.506H69.4139ZM71.4139 353.575C71.4139 353.023 70.9662 352.575 70.4139 352.575C69.8616 352.575 69.4139 353.023 69.4139 353.575H71.4139ZM69.4139 359.644C69.4139 360.197 69.8616 360.644 70.4139 360.644C70.9662 360.644 71.4139 360.197 71.4139 359.644H69.4139ZM71.4139 365.714C71.4139 365.162 70.9662 364.714 70.4139 364.714C69.8616 364.714 69.4139 365.162 69.4139 365.714H71.4139ZM69.4139 371.783C69.4139 372.336 69.8616 372.783 70.4139 372.783C70.9662 372.783 71.4139 372.336 71.4139 371.783H69.4139ZM71.4139 377.853C71.4139 377.3 70.9662 376.853 70.4139 376.853C69.8616 376.853 69.4139 377.3 69.4139 377.853H71.4139ZM69.5385 384.106C69.5812 384.657 70.0623 385.069 70.6129 385.026C71.1635 384.983 71.5752 384.502 71.5325 383.951L69.5385 384.106ZM72.4832 389.997C72.3547 389.459 71.8151 389.128 71.278 389.257C70.7409 389.385 70.4096 389.925 70.5381 390.462L72.4832 389.997ZM72.5254 396.582C72.737 397.092 73.322 397.334 73.8322 397.123C74.3424 396.911 74.5844 396.326 74.3729 395.816L72.5254 396.582ZM77.1553 401.267C76.8663 400.796 76.2505 400.649 75.7799 400.938C75.3092 401.227 75.162 401.842 75.451 402.313L77.1553 401.267ZM79.2368 407.515C79.5957 407.935 80.2269 407.985 80.6467 407.626C81.0665 407.267 81.1159 406.636 80.757 406.216L79.2368 407.515ZM85.0855 410.544C84.6657 410.185 84.0345 410.235 83.6756 410.655C83.3167 411.074 83.3661 411.706 83.7859 412.065L85.0855 410.544ZM88.9882 415.85C89.4589 416.139 90.0747 415.992 90.3637 415.521C90.6527 415.051 90.5055 414.435 90.0348 414.146L88.9882 415.85ZM95.4855 416.928C94.9753 416.717 94.3902 416.959 94.1787 417.469C93.9671 417.979 94.2092 418.564 94.7194 418.776L95.4855 416.928ZM100.839 420.763C101.377 420.892 101.916 420.56 102.045 420.023C102.173 419.486 101.842 418.947 101.305 418.818L100.839 420.763ZM107.35 419.769C106.799 419.726 106.318 420.138 106.275 420.688C106.233 421.239 106.644 421.72 107.195 421.763L107.35 419.769ZM113.429 421.887C113.981 421.887 114.429 421.44 114.429 420.887C114.429 420.335 113.981 419.887 113.429 419.887V421.887ZM119.458 419.887C118.906 419.887 118.458 420.335 118.458 420.887C118.458 421.44 118.906 421.887 119.458 421.887V419.887ZM125.487 421.887C126.04 421.887 126.487 421.44 126.487 420.887C126.487 420.335 126.04 419.887 125.487 419.887V421.887ZM131.517 419.887C130.964 419.887 130.517 420.335 130.517 420.887C130.517 421.44 130.964 421.887 131.517 421.887V419.887ZM137.546 421.887C138.098 421.887 138.546 421.44 138.546 420.887C138.546 420.335 138.098 419.887 137.546 419.887V421.887ZM143.575 419.887C143.023 419.887 142.575 420.335 142.575 420.887C142.575 421.44 143.023 421.887 143.575 421.887V419.887ZM149.605 421.887C150.157 421.887 150.605 421.44 150.605 420.887C150.605 420.335 150.157 419.887 149.605 419.887V421.887ZM155.634 419.887C155.082 419.887 154.634 420.335 154.634 420.887C154.634 421.44 155.082 421.887 155.634 421.887V419.887ZM161.663 421.887C162.216 421.887 162.663 421.44 162.663 420.887C162.663 420.335 162.216 419.887 161.663 419.887V421.887ZM167.693 419.887C167.14 419.887 166.693 420.335 166.693 420.887C166.693 421.44 167.14 421.887 167.693 421.887V419.887ZM173.722 421.887C174.274 421.887 174.722 421.44 174.722 420.887C174.722 420.335 174.274 419.887 173.722 419.887V421.887ZM179.751 419.887C179.199 419.887 178.751 420.335 178.751 420.887C178.751 421.44 179.199 421.887 179.751 421.887V419.887ZM185.781 421.887C186.333 421.887 186.781 421.44 186.781 420.887C186.781 420.335 186.333 419.887 185.781 419.887V421.887ZM191.81 419.887C191.258 419.887 190.81 420.335 190.81 420.887C190.81 421.44 191.258 421.887 191.81 421.887V419.887ZM197.839 421.887C198.392 421.887 198.839 421.44 198.839 420.887C198.839 420.335 198.392 419.887 197.839 419.887V421.887ZM203.869 419.887C203.316 419.887 202.869 420.335 202.869 420.887C202.869 421.44 203.316 421.887 203.869 421.887V419.887ZM209.898 421.887C210.45 421.887 210.898 421.44 210.898 420.887C210.898 420.335 210.45 419.887 209.898 419.887V421.887ZM215.927 419.887C215.375 419.887 214.927 420.335 214.927 420.887C214.927 421.44 215.375 421.887 215.927 421.887V419.887ZM221.957 421.887C222.509 421.887 222.957 421.44 222.957 420.887C222.957 420.335 222.509 419.887 221.957 419.887V421.887ZM227.986 419.887C227.434 419.887 226.986 420.335 226.986 420.887C226.986 421.44 227.434 421.887 227.986 421.887V419.887ZM234.015 421.887C234.568 421.887 235.015 421.44 235.015 420.887C235.015 420.335 234.568 419.887 234.015 419.887V421.887ZM240.045 419.887C239.492 419.887 239.045 420.335 239.045 420.887C239.045 421.44 239.492 421.887 240.045 421.887V419.887ZM246.074 421.887C246.626 421.887 247.074 421.44 247.074 420.887C247.074 420.335 246.626 419.887 246.074 419.887V421.887ZM252.103 419.887C251.551 419.887 251.103 420.335 251.103 420.887C251.103 421.44 251.551 421.887 252.103 421.887V419.887ZM258.133 421.887C258.685 421.887 259.133 421.44 259.133 420.887C259.133 420.335 258.685 419.887 258.133 419.887V421.887ZM264.162 419.887C263.61 419.887 263.162 420.335 263.162 420.887C263.162 421.44 263.61 421.887 264.162 421.887V419.887ZM270.191 421.887C270.744 421.887 271.191 421.44 271.191 420.887C271.191 420.335 270.744 419.887 270.191 419.887V421.887ZM276.221 419.887C275.668 419.887 275.221 420.335 275.221 420.887C275.221 421.44 275.668 421.887 276.221 421.887V419.887ZM282.25 421.887C282.802 421.887 283.25 421.44 283.25 420.887C283.25 420.335 282.802 419.887 282.25 419.887V421.887ZM288.279 419.887C287.727 419.887 287.279 420.335 287.279 420.887C287.279 421.44 287.727 421.887 288.279 421.887V419.887ZM294.309 421.887C294.861 421.887 295.309 421.44 295.309 420.887C295.309 420.335 294.861 419.887 294.309 419.887V421.887ZM300.338 419.887C299.786 419.887 299.338 420.335 299.338 420.887C299.338 421.44 299.786 421.887 300.338 421.887V419.887ZM306.367 421.887C306.92 421.887 307.367 421.44 307.367 420.887C307.367 420.335 306.92 419.887 306.367 419.887V421.887ZM312.397 419.887C311.844 419.887 311.397 420.335 311.397 420.887C311.397 421.44 311.844 421.887 312.397 421.887V419.887ZM318.426 421.887C318.978 421.887 319.426 421.44 319.426 420.887C319.426 420.335 318.978 419.887 318.426 419.887V421.887ZM324.455 419.887C323.903 419.887 323.455 420.335 323.455 420.887C323.455 421.44 323.903 421.887 324.455 421.887V419.887ZM330.485 421.887C331.037 421.887 331.485 421.44 331.485 420.887C331.485 420.335 331.037 419.887 330.485 419.887V421.887ZM336.514 419.887C335.962 419.887 335.514 420.335 335.514 420.887C335.514 421.44 335.962 421.887 336.514 421.887V419.887ZM342.543 421.887C343.096 421.887 343.543 421.44 343.543 420.887C343.543 420.335 343.096 419.887 342.543 419.887V421.887ZM348.573 419.887C348.021 419.887 347.573 420.335 347.573 420.887C347.573 421.44 348.021 421.887 348.573 421.887V419.887ZM354.602 421.887C355.154 421.887 355.602 421.44 355.602 420.887C355.602 420.335 355.154 419.887 354.602 419.887V421.887ZM360.632 419.887C360.079 419.887 359.632 420.335 359.632 420.887C359.632 421.44 360.079 421.887 360.632 421.887V419.887ZM366.661 421.887C367.213 421.887 367.661 421.44 367.661 420.887C367.661 420.335 367.213 419.887 366.661 419.887V421.887ZM372.69 419.887C372.138 419.887 371.69 420.335 371.69 420.887C371.69 421.44 372.138 421.887 372.69 421.887V419.887ZM378.719 421.887C379.272 421.887 379.719 421.44 379.719 420.887C379.719 420.335 379.272 419.887 378.719 419.887V421.887ZM384.749 419.887C384.197 419.887 383.749 420.335 383.749 420.887C383.749 421.44 384.197 421.887 384.749 421.887V419.887ZM390.778 421.887C391.33 421.887 391.778 421.44 391.778 420.887C391.778 420.335 391.33 419.887 390.778 419.887V421.887ZM396.807 419.887C396.255 419.887 395.807 420.335 395.807 420.887C395.807 421.44 396.255 421.887 396.807 421.887V419.887ZM402.837 421.887C403.389 421.887 403.837 421.44 403.837 420.887C403.837 420.335 403.389 419.887 402.837 419.887V421.887ZM408.866 419.887C408.314 419.887 407.866 420.335 407.866 420.887C407.866 421.44 408.314 421.887 408.866 421.887V419.887ZM414.895 421.887C415.448 421.887 415.895 421.44 415.895 420.887C415.895 420.335 415.448 419.887 414.895 419.887V421.887ZM420.925 419.887C420.372 419.887 419.925 420.335 419.925 420.887C419.925 421.44 420.372 421.887 420.925 421.887V419.887ZM426.954 421.887C427.506 421.887 427.954 421.44 427.954 420.887C427.954 420.335 427.506 419.887 426.954 419.887V421.887ZM432.983 419.887C432.431 419.887 431.983 420.335 431.983 420.887C431.983 421.44 432.431 421.887 432.983 421.887V419.887ZM439.013 421.887C439.565 421.887 440.013 421.44 440.013 420.887C440.013 420.335 439.565 419.887 439.013 419.887V421.887ZM445.042 419.887C444.49 419.887 444.042 420.335 444.042 420.887C444.042 421.44 444.49 421.887 445.042 421.887V419.887ZM451.071 421.887C451.624 421.887 452.071 421.44 452.071 420.887C452.071 420.335 451.624 419.887 451.071 419.887V421.887ZM457.101 419.887C456.548 419.887 456.101 420.335 456.101 420.887C456.101 421.44 456.548 421.887 457.101 421.887V419.887ZM463.13 421.887C463.682 421.887 464.13 421.44 464.13 420.887C464.13 420.335 463.682 419.887 463.13 419.887V421.887ZM469.159 419.887C468.607 419.887 468.159 420.335 468.159 420.887C468.159 421.44 468.607 421.887 469.159 421.887V419.887ZM475.189 421.887C475.741 421.887 476.189 421.44 476.189 420.887C476.189 420.335 475.741 419.887 475.189 419.887V421.887ZM481.218 419.887C480.666 419.887 480.218 420.335 480.218 420.887C480.218 421.44 480.666 421.887 481.218 421.887V419.887ZM487.247 421.887C487.8 421.887 488.247 421.44 488.247 420.887C488.247 420.335 487.8 419.887 487.247 419.887V421.887ZM493.277 419.887C492.724 419.887 492.277 420.335 492.277 420.887C492.277 421.44 492.724 421.887 493.277 421.887V419.887ZM499.306 421.887C499.858 421.887 500.306 421.44 500.306 420.887C500.306 420.335 499.858 419.887 499.306 419.887V421.887ZM505.335 419.887C504.783 419.887 504.335 420.335 504.335 420.887C504.335 421.44 504.783 421.887 505.335 421.887V419.887ZM511.365 421.887C511.917 421.887 512.365 421.44 512.365 420.887C512.365 420.335 511.917 419.887 511.365 419.887V421.887ZM517.394 419.887C516.842 419.887 516.394 420.335 516.394 420.887C516.394 421.44 516.842 421.887 517.394 421.887V419.887ZM523.423 421.887C523.976 421.887 524.423 421.44 524.423 420.887C524.423 420.335 523.976 419.887 523.423 419.887V421.887ZM529.453 419.887C528.9 419.887 528.453 420.335 528.453 420.887C528.453 421.44 528.9 421.887 529.453 421.887V419.887ZM535.482 421.887C536.034 421.887 536.482 421.44 536.482 420.887C536.482 420.335 536.034 419.887 535.482 419.887V421.887ZM541.511 419.887C540.959 419.887 540.511 420.335 540.511 420.887C540.511 421.44 540.959 421.887 541.511 421.887V419.887ZM547.541 421.887C548.093 421.887 548.541 421.44 548.541 420.887C548.541 420.335 548.093 419.887 547.541 419.887V421.887ZM553.57 419.887C553.018 419.887 552.57 420.335 552.57 420.887C552.57 421.44 553.018 421.887 553.57 421.887V419.887ZM559.599 421.887C560.152 421.887 560.599 421.44 560.599 420.887C560.599 420.335 560.152 419.887 559.599 419.887V421.887ZM565.629 419.887C565.076 419.887 564.629 420.335 564.629 420.887C564.629 421.44 565.076 421.887 565.629 421.887V419.887ZM571.658 421.887C572.21 421.887 572.658 421.44 572.658 420.887C572.658 420.335 572.21 419.887 571.658 419.887V421.887ZM577.687 419.887C577.135 419.887 576.687 420.335 576.687 420.887C576.687 421.44 577.135 421.887 577.687 421.887V419.887ZM583.717 421.887C584.269 421.887 584.717 421.44 584.717 420.887C584.717 420.335 584.269 419.887 583.717 419.887V421.887ZM589.746 419.887C589.194 419.887 588.746 420.335 588.746 420.887C588.746 421.44 589.194 421.887 589.746 421.887V419.887ZM595.775 421.887C596.328 421.887 596.775 421.44 596.775 420.887C596.775 420.335 596.328 419.887 595.775 419.887V421.887ZM601.805 419.887C601.252 419.887 600.805 420.335 600.805 420.887C600.805 421.44 601.252 421.887 601.805 421.887V419.887ZM607.834 421.887C608.386 421.887 608.834 421.44 608.834 420.887C608.834 420.335 608.386 419.887 607.834 419.887V421.887ZM613.863 419.887C613.311 419.887 612.863 420.335 612.863 420.887C612.863 421.44 613.311 421.887 613.863 421.887V419.887ZM619.893 421.887C620.445 421.887 620.893 421.44 620.893 420.887C620.893 420.335 620.445 419.887 619.893 419.887V421.887ZM625.922 419.887C625.37 419.887 624.922 420.335 624.922 420.887C624.922 421.44 625.37 421.887 625.922 421.887V419.887ZM631.951 421.887C632.504 421.887 632.951 421.44 632.951 420.887C632.951 420.335 632.504 419.887 631.951 419.887V421.887ZM637.981 419.887C637.428 419.887 636.981 420.335 636.981 420.887C636.981 421.44 637.428 421.887 637.981 421.887V419.887ZM644.01 421.887C644.562 421.887 645.01 421.44 645.01 420.887C645.01 420.335 644.562 419.887 644.01 419.887V421.887ZM650.039 419.887C649.487 419.887 649.039 420.335 649.039 420.887C649.039 421.44 649.487 421.887 650.039 421.887V419.887ZM656.069 421.887C656.621 421.887 657.069 421.44 657.069 420.887C657.069 420.335 656.621 419.887 656.069 419.887V421.887ZM662.098 419.887C661.546 419.887 661.098 420.335 661.098 420.887C661.098 421.44 661.546 421.887 662.098 421.887V419.887ZM668.127 421.887C668.68 421.887 669.127 421.44 669.127 420.887C669.127 420.335 668.68 419.887 668.127 419.887V421.887ZM674.157 419.887C673.604 419.887 673.157 420.335 673.157 420.887C673.157 421.44 673.604 421.887 674.157 421.887V419.887ZM680.186 421.887C680.738 421.887 681.186 421.44 681.186 420.887C681.186 420.335 680.738 419.887 680.186 419.887V421.887ZM686.215 419.887C685.663 419.887 685.215 420.335 685.215 420.887C685.215 421.44 685.663 421.887 686.215 421.887V419.887ZM692.245 421.887C692.797 421.887 693.245 421.44 693.245 420.887C693.245 420.335 692.797 419.887 692.245 419.887V421.887ZM698.274 419.887C697.722 419.887 697.274 420.335 697.274 420.887C697.274 421.44 697.722 421.887 698.274 421.887V419.887ZM704.304 421.887C704.856 421.887 705.304 421.44 705.304 420.887C705.304 420.335 704.856 419.887 704.304 419.887V421.887ZM710.333 419.887C709.781 419.887 709.333 420.335 709.333 420.887C709.333 421.44 709.781 421.887 710.333 421.887V419.887ZM716.362 421.887C716.915 421.887 717.362 421.44 717.362 420.887C717.362 420.335 716.915 419.887 716.362 419.887V421.887ZM722.392 419.887C721.839 419.887 721.392 420.335 721.392 420.887C721.392 421.44 721.839 421.887 722.392 421.887V419.887ZM728.625 421.763C729.176 421.72 729.587 421.239 729.545 420.688C729.502 420.138 729.021 419.726 728.47 419.769L728.625 421.763ZM734.515 418.818C733.978 418.947 733.647 419.486 733.776 420.023C733.904 420.56 734.444 420.892 734.981 420.763L734.515 418.818ZM741.101 418.776C741.611 418.564 741.853 417.979 741.641 417.469C741.43 416.959 740.845 416.717 740.335 416.928L741.101 418.776ZM745.785 414.146C745.315 414.435 745.167 415.051 745.456 415.521C745.745 415.992 746.361 416.139 746.832 415.85L745.785 414.146ZM752.034 412.064C752.454 411.706 752.503 411.074 752.145 410.655C751.786 410.235 751.154 410.185 750.735 410.544L752.034 412.064ZM755.063 406.216C754.704 406.636 754.754 407.267 755.173 407.626C755.593 407.985 756.224 407.935 756.583 407.515L755.063 406.216ZM760.369 402.313C760.658 401.842 760.511 401.227 760.04 400.938C759.57 400.649 758.954 400.796 758.665 401.266L760.369 402.313ZM761.447 395.816C761.236 396.326 761.478 396.911 761.988 397.123C762.498 397.334 763.083 397.092 763.295 396.582L761.447 395.816ZM765.282 390.462C765.411 389.925 765.079 389.385 764.542 389.257C764.005 389.128 763.465 389.459 763.337 389.997L765.282 390.462ZM764.288 383.951C764.245 384.502 764.657 384.983 765.207 385.026C765.758 385.069 766.239 384.657 766.282 384.106L764.288 383.951ZM766.406 377.861C766.406 377.309 765.959 376.861 765.406 376.861C764.854 376.861 764.406 377.309 764.406 377.861H766.406ZM764.406 371.808C764.406 372.361 764.854 372.808 765.406 372.808C765.959 372.808 766.406 372.361 766.406 371.808H764.406ZM766.406 365.756C766.406 365.204 765.959 364.756 765.406 364.756C764.854 364.756 764.406 365.204 764.406 365.756H766.406ZM764.406 359.703C764.406 360.255 764.854 360.703 765.406 360.703C765.959 360.703 766.406 360.255 766.406 359.703H764.406ZM766.406 353.651C766.406 353.098 765.959 352.651 765.406 352.651C764.854 352.651 764.406 353.098 764.406 353.651H766.406ZM764.406 347.598C764.406 348.15 764.854 348.598 765.406 348.598C765.959 348.598 766.406 348.15 766.406 347.598H764.406ZM766.406 341.545C766.406 340.993 765.959 340.545 765.406 340.545C764.854 340.545 764.406 340.993 764.406 341.545H766.406ZM764.406 335.493C764.406 336.045 764.854 336.493 765.406 336.493C765.959 336.493 766.406 336.045 766.406 335.493H764.406ZM766.406 329.44C766.406 328.888 765.959 328.44 765.406 328.44C764.854 328.44 764.406 328.888 764.406 329.44H766.406ZM764.406 323.387C764.406 323.94 764.854 324.387 765.406 324.387C765.959 324.387 766.406 323.94 766.406 323.387H764.406ZM766.406 317.335C766.406 316.782 765.959 316.335 765.406 316.335C764.854 316.335 764.406 316.782 764.406 317.335H766.406ZM764.406 311.282C764.406 311.834 764.854 312.282 765.406 312.282C765.959 312.282 766.406 311.834 766.406 311.282H764.406ZM766.406 305.229C766.406 304.677 765.959 304.229 765.406 304.229C764.854 304.229 764.406 304.677 764.406 305.229H766.406ZM764.406 299.177C764.406 299.729 764.854 300.177 765.406 300.177C765.959 300.177 766.406 299.729 766.406 299.177H764.406ZM766.406 293.124C766.406 292.572 765.959 292.124 765.406 292.124C764.854 292.124 764.406 292.572 764.406 293.124H766.406ZM764.406 287.072C764.406 287.624 764.854 288.072 765.406 288.072C765.959 288.072 766.406 287.624 766.406 287.072H764.406ZM766.406 281.019C766.406 280.467 765.959 280.019 765.406 280.019C764.854 280.019 764.406 280.467 764.406 281.019H766.406ZM764.406 274.966C764.406 275.519 764.854 275.966 765.406 275.966C765.959 275.966 766.406 275.519 766.406 274.966H764.406ZM766.406 268.914C766.406 268.361 765.959 267.914 765.406 267.914C764.854 267.914 764.406 268.361 764.406 268.914H766.406ZM764.406 262.861C764.406 263.413 764.854 263.861 765.406 263.861C765.959 263.861 766.406 263.413 766.406 262.861H764.406ZM766.406 256.808C766.406 256.256 765.959 255.808 765.406 255.808C764.854 255.808 764.406 256.256 764.406 256.808H766.406ZM764.406 250.756C764.406 251.308 764.854 251.756 765.406 251.756C765.959 251.756 766.406 251.308 766.406 250.756H764.406ZM766.406 244.703C766.406 244.151 765.959 243.703 765.406 243.703C764.854 243.703 764.406 244.151 764.406 244.703H766.406ZM764.406 238.65C764.406 239.203 764.854 239.65 765.406 239.65C765.959 239.65 766.406 239.203 766.406 238.65H764.406ZM766.406 232.598C766.406 232.046 765.959 231.598 765.406 231.598C764.854 231.598 764.406 232.046 764.406 232.598H766.406ZM764.406 226.545C764.406 227.097 764.854 227.545 765.406 227.545C765.959 227.545 766.406 227.097 766.406 226.545H764.406ZM766.406 220.493C766.406 219.94 765.959 219.493 765.406 219.493C764.854 219.493 764.406 219.94 764.406 220.493H766.406ZM764.406 214.44C764.406 214.992 764.854 215.44 765.406 215.44C765.959 215.44 766.406 214.992 766.406 214.44H764.406ZM766.406 208.387C766.406 207.835 765.959 207.387 765.406 207.387C764.854 207.387 764.406 207.835 764.406 208.387H766.406ZM764.406 202.335C764.406 202.887 764.854 203.335 765.406 203.335C765.959 203.335 766.406 202.887 766.406 202.335H764.406ZM766.406 196.282C766.406 195.73 765.959 195.282 765.406 195.282C764.854 195.282 764.406 195.73 764.406 196.282H766.406ZM764.406 190.229C764.406 190.782 764.854 191.229 765.406 191.229C765.959 191.229 766.406 190.782 766.406 190.229H764.406ZM766.406 184.177C766.406 183.624 765.959 183.177 765.406 183.177C764.854 183.177 764.406 183.624 764.406 184.177H766.406ZM764.406 178.124C764.406 178.676 764.854 179.124 765.406 179.124C765.959 179.124 766.406 178.676 766.406 178.124H764.406ZM766.406 172.071C766.406 171.519 765.959 171.071 765.406 171.071C764.854 171.071 764.406 171.519 764.406 172.071H766.406ZM764.406 166.019C764.406 166.571 764.854 167.019 765.406 167.019C765.959 167.019 766.406 166.571 766.406 166.019H764.406ZM766.406 159.966C766.406 159.414 765.959 158.966 765.406 158.966C764.854 158.966 764.406 159.414 764.406 159.966H766.406ZM764.406 153.913C764.406 154.466 764.854 154.913 765.406 154.913C765.959 154.913 766.406 154.466 766.406 153.913H764.406ZM766.406 147.861C766.406 147.309 765.959 146.861 765.406 146.861C764.854 146.861 764.406 147.309 764.406 147.861H766.406ZM764.406 141.808C764.406 142.36 764.854 142.808 765.406 142.808C765.959 142.808 766.406 142.36 766.406 141.808H764.406ZM766.406 135.756C766.406 135.203 765.959 134.756 765.406 134.756C764.854 134.756 764.406 135.203 764.406 135.756H766.406ZM764.406 129.703C764.406 130.255 764.854 130.703 765.406 130.703C765.959 130.703 766.406 130.255 766.406 129.703H764.406ZM766.406 123.65C766.406 123.098 765.959 122.65 765.406 122.65C764.854 122.65 764.406 123.098 764.406 123.65H766.406ZM764.406 117.598C764.406 118.15 764.854 118.598 765.406 118.598C765.959 118.598 766.406 118.15 766.406 117.598H764.406ZM766.406 111.545C766.406 110.993 765.959 110.545 765.406 110.545C764.854 110.545 764.406 110.993 764.406 111.545H766.406ZM764.406 105.492C764.406 106.045 764.854 106.492 765.406 106.492C765.959 106.492 766.406 106.045 766.406 105.492H764.406ZM766.406 99.4397C766.406 98.8874 765.959 98.4397 765.406 98.4397C764.854 98.4397 764.406 98.8874 764.406 99.4397H766.406ZM764.406 93.387C764.406 93.9393 764.854 94.387 765.406 94.387C765.959 94.387 766.406 93.9393 766.406 93.387H764.406ZM766.406 87.3344C766.406 86.7821 765.959 86.3344 765.406 86.3344C764.854 86.3344 764.406 86.7821 764.406 87.3344H766.406ZM764.406 81.2818C764.406 81.834 764.854 82.2818 765.406 82.2818C765.959 82.2818 766.406 81.834 766.406 81.2818H764.406ZM766.406 75.2291C766.406 74.6768 765.959 74.2291 765.406 74.2291C764.854 74.2291 764.406 74.6768 764.406 75.2291H766.406ZM764.406 69.1765C764.406 69.7287 764.854 70.1765 765.406 70.1765C765.959 70.1765 766.406 69.7287 766.406 69.1765H764.406ZM766.406 63.1238C766.406 62.5715 765.959 62.1238 765.406 62.1238C764.854 62.1238 764.406 62.5715 764.406 63.1238H766.406ZM764.406 57.0712C764.406 57.6235 764.854 58.0712 765.406 58.0712C765.959 58.0712 766.406 57.6235 766.406 57.0712H764.406ZM766.406 51.0185C766.406 50.4662 765.959 50.0185 765.406 50.0185C764.854 50.0185 764.406 50.4662 764.406 51.0185H766.406ZM764.406 44.9659C764.406 45.5182 764.854 45.9659 765.406 45.9659C765.959 45.9659 766.406 45.5182 766.406 44.9659H764.406ZM766.406 38.9132C766.406 38.361 765.959 37.9132 765.406 37.9132C764.854 37.9132 764.406 38.361 764.406 38.9132H766.406ZM764.406 32.8606C764.406 33.4129 764.854 33.8606 765.406 33.8606C765.959 33.8606 766.406 33.4129 766.406 32.8606H764.406ZM1 1V2H4.67674V1V0H1V1ZM12.0302 1V2H19.3837V1V0H12.0302V1ZM26.7372 1V2H30.4139V1V0H26.7372V1ZM30.4139 1V2C31.4453 2 32.4671 2.04001 33.4779 2.11854L33.5554 1.12155L33.6328 0.12455C32.5705 0.0420209 31.497 0 30.4139 0V1ZM39.7558 2.09676L39.5231 3.06931C41.5274 3.54886 43.4716 4.18317 45.3424 4.95895L45.7254 4.03522L46.1085 3.1115C44.1411 2.29565 42.0964 1.62854 39.9885 1.12421L39.7558 2.09676ZM51.3163 6.88924L50.793 7.74139C52.5382 8.8131 54.1928 10.0184 55.7423 11.3431L56.3921 10.583L57.0419 9.82292C55.4134 8.43068 53.6743 7.16374 51.8396 6.03709L51.3163 6.88924ZM60.8309 15.0218L60.0708 15.6716C61.3955 17.2212 62.6008 18.8757 63.6725 20.6209L64.5247 20.0976L65.3768 19.5743C64.2502 17.7396 62.9832 16.0006 61.591 14.372L60.8309 15.0218ZM67.3787 25.6885L66.455 26.0715C67.2307 27.9423 67.8651 29.8865 68.3446 31.8908L69.3172 31.6582L70.2897 31.4255C69.7854 29.3175 69.1183 27.2728 68.3024 25.3054L67.3787 25.6885ZM70.2924 37.8585L69.2954 37.936C69.3739 38.9468 69.4139 39.9686 69.4139 41H70.4139H71.4139C71.4139 39.9169 71.3719 38.8434 71.2894 37.7811L70.2924 37.8585ZM70.4139 41H69.4139V44.0347H70.4139H71.4139V41H70.4139ZM70.4139 50.1041H69.4139V56.1735H70.4139H71.4139V50.1041H70.4139ZM70.4139 62.243H69.4139V68.3124H70.4139H71.4139V62.243H70.4139ZM70.4139 74.3818H69.4139V80.4512H70.4139H71.4139V74.3818H70.4139ZM70.4139 86.5206H69.4139V92.5901H70.4139H71.4139V86.5206H70.4139ZM70.4139 98.6595H69.4139V104.729H70.4139H71.4139V98.6595H70.4139ZM70.4139 110.798H69.4139V116.868H70.4139H71.4139V110.798H70.4139ZM70.4139 122.937H69.4139V129.007H70.4139H71.4139V122.937H70.4139ZM70.4139 135.076H69.4139V141.145H70.4139H71.4139V135.076H70.4139ZM70.4139 147.215H69.4139V153.284H70.4139H71.4139V147.215H70.4139ZM70.4139 159.354H69.4139V165.423H70.4139H71.4139V159.354H70.4139ZM70.4139 171.493H69.4139V177.562H70.4139H71.4139V171.493H70.4139ZM70.4139 183.631H69.4139V189.701H70.4139H71.4139V183.631H70.4139ZM70.4139 195.77H69.4139V201.84H70.4139H71.4139V195.77H70.4139ZM70.4139 207.909H69.4139V213.978H70.4139H71.4139V207.909H70.4139ZM70.4139 220.048H69.4139V226.117H70.4139H71.4139V220.048H70.4139ZM70.4139 232.187H69.4139V238.256H70.4139H71.4139V232.187H70.4139ZM70.4139 244.325H69.4139V250.395H70.4139H71.4139V244.325H70.4139ZM70.4139 256.464H69.4139V262.534H70.4139H71.4139V256.464H70.4139ZM70.4139 268.603H69.4139V274.673H70.4139H71.4139V268.603H70.4139ZM70.4139 280.742H69.4139V286.811H70.4139H71.4139V280.742H70.4139ZM70.4139 292.881H69.4139V298.95H70.4139H71.4139V292.881H70.4139ZM70.4139 305.02H69.4139V311.089H70.4139H71.4139V305.02H70.4139ZM70.4139 317.158H69.4139V323.228H70.4139H71.4139V317.158H70.4139ZM70.4139 329.297H69.4139V335.367H70.4139H71.4139V329.297H70.4139ZM70.4139 341.436H69.4139V347.506H70.4139H71.4139V341.436H70.4139ZM70.4139 353.575H69.4139V359.644H70.4139H71.4139V353.575H70.4139ZM70.4139 365.714H69.4139V371.783H70.4139H71.4139V365.714H70.4139ZM70.4139 377.853H69.4139V380.887H70.4139H71.4139V377.853H70.4139ZM70.4139 380.887H69.4139C69.4139 381.971 69.4559 383.044 69.5385 384.106L70.5355 384.029L71.5325 383.951C71.4539 382.941 71.4139 381.919 71.4139 380.887H70.4139ZM71.5107 390.229L70.5381 390.462C71.0425 392.57 71.7096 394.615 72.5254 396.582L73.4491 396.199L74.3729 395.816C73.5971 393.945 72.9628 392.001 72.4832 389.997L71.5107 390.229ZM76.3032 401.79L75.451 402.313C76.5777 404.148 77.8446 405.887 79.2368 407.515L79.9969 406.866L80.757 406.216C79.4323 404.666 78.227 403.012 77.1553 401.267L76.3032 401.79ZM84.4357 411.304L83.7859 412.065C85.4145 413.457 87.1536 414.724 88.9882 415.85L89.5115 414.998L90.0348 414.146C88.2896 413.074 86.6351 411.869 85.0855 410.544L84.4357 411.304ZM95.1024 417.852L94.7194 418.776C96.6867 419.592 98.7314 420.259 100.839 420.763L101.072 419.791L101.305 418.818C99.3004 418.339 97.3562 417.704 95.4855 416.928L95.1024 417.852ZM107.272 420.766L107.195 421.763C108.257 421.845 109.331 421.887 110.414 421.887V420.887V419.887C109.383 419.887 108.361 419.847 107.35 419.769L107.272 420.766ZM110.414 420.887V421.887H113.429V420.887V419.887H110.414V420.887ZM119.458 420.887V421.887H125.487V420.887V419.887H119.458V420.887ZM131.517 420.887V421.887H137.546V420.887V419.887H131.517V420.887ZM143.575 420.887V421.887H149.605V420.887V419.887H143.575V420.887ZM155.634 420.887V421.887H161.663V420.887V419.887H155.634V420.887ZM167.693 420.887V421.887H173.722V420.887V419.887H167.693V420.887ZM179.751 420.887V421.887H185.781V420.887V419.887H179.751V420.887ZM191.81 420.887V421.887H197.839V420.887V419.887H191.81V420.887ZM203.869 420.887V421.887H209.898V420.887V419.887H203.869V420.887ZM215.927 420.887V421.887H221.957V420.887V419.887H215.927V420.887ZM227.986 420.887V421.887H234.015V420.887V419.887H227.986V420.887ZM240.045 420.887V421.887H246.074V420.887V419.887H240.045V420.887ZM252.103 420.887V421.887H258.133V420.887V419.887H252.103V420.887ZM264.162 420.887V421.887H270.191V420.887V419.887H264.162V420.887ZM276.221 420.887V421.887H282.25V420.887V419.887H276.221V420.887ZM288.279 420.887V421.887H294.309V420.887V419.887H288.279V420.887ZM300.338 420.887V421.887H306.367V420.887V419.887H300.338V420.887ZM312.397 420.887V421.887H318.426V420.887V419.887H312.397V420.887ZM324.455 420.887V421.887H330.485V420.887V419.887H324.455V420.887ZM336.514 420.887V421.887H342.543V420.887V419.887H336.514V420.887ZM348.573 420.887V421.887H354.602V420.887V419.887H348.573V420.887ZM360.632 420.887V421.887H366.661V420.887V419.887H360.632V420.887ZM372.69 420.887V421.887H378.719V420.887V419.887H372.69V420.887ZM384.749 420.887V421.887H390.778V420.887V419.887H384.749V420.887ZM396.807 420.887V421.887H402.837V420.887V419.887H396.807V420.887ZM408.866 420.887V421.887H414.895V420.887V419.887H408.866V420.887ZM420.925 420.887V421.887H426.954V420.887V419.887H420.925V420.887ZM432.983 420.887V421.887H439.013V420.887V419.887H432.983V420.887ZM445.042 420.887V421.887H451.071V420.887V419.887H445.042V420.887ZM457.101 420.887V421.887H463.13V420.887V419.887H457.101V420.887ZM469.159 420.887V421.887H475.189V420.887V419.887H469.159V420.887ZM481.218 420.887V421.887H487.247V420.887V419.887H481.218V420.887ZM493.277 420.887V421.887H499.306V420.887V419.887H493.277V420.887ZM505.335 420.887V421.887H511.365V420.887V419.887H505.335V420.887ZM517.394 420.887V421.887H523.423V420.887V419.887H517.394V420.887ZM529.453 420.887V421.887H535.482V420.887V419.887H529.453V420.887ZM541.511 420.887V421.887H547.541V420.887V419.887H541.511V420.887ZM553.57 420.887V421.887H559.599V420.887V419.887H553.57V420.887ZM565.629 420.887V421.887H571.658V420.887V419.887H565.629V420.887ZM577.687 420.887V421.887H583.717V420.887V419.887H577.687V420.887ZM589.746 420.887V421.887H595.775V420.887V419.887H589.746V420.887ZM601.805 420.887V421.887H607.834V420.887V419.887H601.805V420.887ZM613.863 420.887V421.887H619.893V420.887V419.887H613.863V420.887ZM625.922 420.887V421.887H631.951V420.887V419.887H625.922V420.887ZM637.981 420.887V421.887H644.01V420.887V419.887H637.981V420.887ZM650.039 420.887V421.887H656.069V420.887V419.887H650.039V420.887ZM662.098 420.887V421.887H668.127V420.887V419.887H662.098V420.887ZM674.157 420.887V421.887H680.186V420.887V419.887H674.157V420.887ZM686.215 420.887V421.887H692.245V420.887V419.887H686.215V420.887ZM698.274 420.887V421.887H704.304V420.887V419.887H698.274V420.887ZM710.333 420.887V421.887H716.362V420.887V419.887H710.333V420.887ZM722.392 420.887V421.887H725.406V420.887V419.887H722.392V420.887ZM725.406 420.887V421.887C726.489 421.887 727.563 421.845 728.625 421.763L728.548 420.766L728.47 419.769C727.459 419.847 726.438 419.887 725.406 419.887V420.887ZM734.748 419.791L734.981 420.763C737.089 420.259 739.133 419.592 741.101 418.776L740.718 417.852L740.335 416.928C738.464 417.704 736.52 418.339 734.515 418.818L734.748 419.791ZM746.309 414.998L746.832 415.85C748.667 414.724 750.406 413.457 752.034 412.064L751.384 411.304L750.735 410.544C749.185 411.869 747.531 413.074 745.785 414.146L746.309 414.998ZM755.823 406.866L756.583 407.515C757.976 405.887 759.242 404.148 760.369 402.313L759.517 401.79L758.665 401.266C757.593 403.012 756.388 404.666 755.063 406.216L755.823 406.866ZM762.371 396.199L763.295 396.582C764.111 394.615 764.778 392.57 765.282 390.462L764.309 390.229L763.337 389.997C762.857 392.001 762.223 393.945 761.447 395.816L762.371 396.199ZM765.285 384.029L766.282 384.106C766.364 383.044 766.406 381.971 766.406 380.887H765.406H764.406C764.406 381.919 764.366 382.941 764.288 383.951L765.285 384.029ZM765.406 380.887H766.406V377.861H765.406H764.406V380.887H765.406ZM765.406 371.808H766.406V365.756H765.406H764.406V371.808H765.406ZM765.406 359.703H766.406V353.651H765.406H764.406V359.703H765.406ZM765.406 347.598H766.406V341.545H765.406H764.406V347.598H765.406ZM765.406 335.493H766.406V329.44H765.406H764.406V335.493H765.406ZM765.406 323.387H766.406V317.335H765.406H764.406V323.387H765.406ZM765.406 311.282H766.406V305.229H765.406H764.406V311.282H765.406ZM765.406 299.177H766.406V293.124H765.406H764.406V299.177H765.406ZM765.406 287.072H766.406V281.019H765.406H764.406V287.072H765.406ZM765.406 274.966H766.406V268.914H765.406H764.406V274.966H765.406ZM765.406 262.861H766.406V256.808H765.406H764.406V262.861H765.406ZM765.406 250.756H766.406V244.703H765.406H764.406V250.756H765.406ZM765.406 238.65H766.406V232.598H765.406H764.406V238.65H765.406ZM765.406 226.545H766.406V220.493H765.406H764.406V226.545H765.406ZM765.406 214.44H766.406V208.387H765.406H764.406V214.44H765.406ZM765.406 202.335H766.406V196.282H765.406H764.406V202.335H765.406ZM765.406 190.229H766.406V184.177H765.406H764.406V190.229H765.406ZM765.406 178.124H766.406V172.071H765.406H764.406V178.124H765.406ZM765.406 166.019H766.406V159.966H765.406H764.406V166.019H765.406ZM765.406 153.913H766.406V147.861H765.406H764.406V153.913H765.406ZM765.406 141.808H766.406V135.756H765.406H764.406V141.808H765.406ZM765.406 129.703H766.406V123.65H765.406H764.406V129.703H765.406ZM765.406 117.598H766.406V111.545H765.406H764.406V117.598H765.406ZM765.406 105.492H766.406V99.4397H765.406H764.406V105.492H765.406ZM765.406 93.387H766.406V87.3344H765.406H764.406V93.387H765.406ZM765.406 81.2818H766.406V75.2291H765.406H764.406V81.2818H765.406ZM765.406 69.1765H766.406V63.1238H765.406H764.406V69.1765H765.406ZM765.406 57.0712H766.406V51.0185H765.406H764.406V57.0712H765.406ZM765.406 44.9659H766.406V38.9132H765.406H764.406V44.9659H765.406ZM765.406 32.8606H766.406V29.8345H765.406H764.406V32.8606H765.406Z" fill="#7D7D7D"/>
</svg>