<svg width="17" height="17" viewBox="0 0 17 17" fill="none" xmlns="http://www.w3.org/2000/svg">
<g clip-path="url(#clip0_18418_194)">
<path d="M8.02826 14.9418C8.39886 14.9418 13.0761 8.49184 13.0761 5.70401C13.0761 2.91622 10.8161 0.65625 8.02826 0.65625C5.24044 0.65625 2.98047 2.91622 2.98047 5.70405C2.98047 8.49184 7.63478 14.9418 8.02826 14.9418ZM6.37603 5.57154C6.37603 4.65905 7.11573 3.91931 8.02826 3.91931C8.94079 3.91931 9.6805 4.65901 9.6805 5.57154C9.6805 6.48407 8.94079 7.22378 8.02826 7.22378C7.11573 7.22378 6.37603 6.48407 6.37603 5.57154Z" fill="#272727"/>
<path d="M2.64453 15.3719C2.64453 16.0817 5.05291 16.6572 8.02376 16.6572C10.9946 16.6572 13.4029 16.0817 13.4029 15.3719C13.4029 14.8082 11.8839 14.3296 9.77111 14.1562C9.66895 14.297 9.56548 14.4369 9.46073 14.5757C8.49998 15.8451 8.28909 15.9096 8.02461 15.9096C7.75417 15.9096 7.52186 15.8198 6.57864 14.5762C6.47373 14.4375 6.37016 14.2977 6.26795 14.157C4.15957 14.3309 2.64453 14.809 2.64453 15.3719Z" fill="#272727"/>
</g>
<defs>
<clipPath id="clip0_18418_194">
<rect width="16" height="16" fill="white" transform="translate(0.0234375 0.65625)"/>
</clipPath>
</defs>
</svg>
