<svg xmlns="http://www.w3.org/2000/svg" width="109" height="97" viewBox="0 0 109 97" fill="none">
  <g clip-path="url(#clip0_12147_12466)">
    <path d="M15.8906 21.5214C16.1985 21.0452 16.5143 20.5758 16.8116 20.0942C17.3636 19.1956 17.9448 18.3116 18.4251 17.3741C18.5525 17.1246 18.4504 16.6592 18.3004 16.3761C17.4631 14.7921 16.8859 13.1181 17.0133 11.3248C17.0929 10.2128 17.4777 9.11833 17.7723 8.03053C17.9076 7.53425 18.0616 6.98834 18.3774 6.60875C18.8723 6.01455 19.2041 6.18087 19.5 6.8864C19.7959 7.59461 20.2059 8.25856 20.6067 8.9158C21.164 9.82788 21.5063 10.7909 21.5422 11.8734C21.5501 12.1175 21.712 12.481 21.8965 12.5561C22.065 12.6245 22.4498 12.4434 22.5838 12.2583C23.7264 10.6689 25.3121 9.62401 26.915 8.60461C27.483 8.2438 28.0629 7.82397 28.6945 7.6657C29.358 7.49938 30.0918 7.5879 30.7937 7.61473C31.6748 7.64826 32.5719 7.64424 33.4304 7.81592C34.5437 8.03858 34.6618 8.51743 33.9174 9.36782C32.7537 10.6944 31.2993 11.5609 29.6844 12.2315C28.0297 12.9183 26.3498 12.7653 24.6592 12.599C24.0316 12.5373 23.6043 12.768 23.1199 13.157C21.6656 14.328 21.03 16.0448 20.0892 17.5592C20.0175 17.6732 20.0852 17.8757 20.0878 18.0367C20.3174 18.0166 20.5854 18.0662 20.7712 17.9629C21.3498 17.645 21.8606 17.1715 22.4657 16.9368C23.4424 16.5572 24.4641 16.2755 25.4859 16.0381C26.1892 15.8745 26.9243 15.8343 27.6488 15.7846C27.8983 15.7672 28.173 15.8557 28.4079 15.9577C28.8298 16.1414 28.928 16.4405 28.6839 16.8751C27.4923 18.9984 25.9636 20.718 23.6998 21.7695C21.7678 22.6655 19.7893 22.9553 17.7165 22.7527C17.0876 22.691 16.6669 22.8962 16.4387 23.4529C15.9663 24.6051 15.5164 25.7666 15.0878 26.9363C15.0241 27.1106 15.1263 27.348 15.1529 27.5573C15.3731 27.4956 15.6292 27.4862 15.8057 27.3614C16.6895 26.7364 17.5334 26.0537 18.4305 25.4487C18.8458 25.1684 19.3275 24.9364 19.8118 24.825C21.014 24.5487 22.2335 24.3395 23.4517 24.1423C23.7078 24.1007 23.9904 24.2228 24.3301 24.2805C23.5154 26.0657 22.6449 27.7008 21.4373 29.0944C20.4196 30.2694 19.2306 31.2955 17.698 31.7582C16.5674 32.1003 15.4222 32.394 14.2757 32.6784C13.8498 32.783 13.599 33.0003 13.5698 33.4362C13.4238 35.64 13.2752 37.8438 13.1637 40.0489C13.1545 40.234 13.4119 40.4338 13.5446 40.627C13.6998 40.4767 13.9374 40.356 13.9997 40.1736C14.5743 38.4661 15.3824 36.8633 16.6125 35.5783C17.5931 34.5535 18.6083 33.4845 20.0347 33.0124C20.3373 32.9118 20.6664 32.7334 20.8601 32.4893C21.2303 32.0252 21.6895 32.1217 22.1313 32.1982C22.2654 32.221 22.4538 32.5282 22.4419 32.6918C22.3914 33.3987 22.3131 34.1082 22.1751 34.8017C22.0079 35.6494 21.8155 36.4971 21.5568 37.3193C20.8243 39.6492 19.3434 41.4197 17.3158 42.6859C16.3538 43.2868 15.2763 43.7053 14.2293 44.1559C13.7662 44.3545 13.6269 44.6428 13.7343 45.0949C14.1404 46.7822 14.5385 48.4709 14.9817 50.1489C15.0361 50.3541 15.3479 50.4896 15.5403 50.6573C15.681 50.4681 15.9026 50.2965 15.949 50.0845C16.7253 46.6025 18.4809 43.7992 21.4758 41.8435C21.9535 41.531 22.2508 41.6866 22.4644 42.2325C23.2739 44.3075 23.2248 46.4778 22.8691 48.5782C22.41 51.2904 20.9769 53.533 18.8246 55.2647C18.7728 55.3062 18.7131 55.3371 18.6613 55.3787C17.5626 56.2599 17.491 56.618 18.2858 57.8212C19.3009 59.3543 20.3333 60.8767 21.3989 62.3736C21.5263 62.552 21.9111 62.5439 22.1765 62.6217C22.207 62.3763 22.2866 62.1254 22.2614 61.8853C22.1406 60.7171 21.8779 59.5515 21.8779 58.3859C21.8766 55.9487 22.5971 53.6873 23.8975 51.6351C24.2877 51.0194 24.7879 50.4722 25.2643 49.9169C25.6398 49.4783 26.022 49.6124 26.306 50.0268C27.3967 51.623 28.1677 53.36 28.4716 55.2861C28.6202 56.2264 28.7807 57.168 28.8577 58.1149C28.9692 59.475 28.514 60.7238 28.1053 62.0047C27.5852 63.6317 26.7757 65.0481 25.6969 66.3358C25.4142 66.6738 25.4713 66.9997 25.7938 67.2707C27.1287 68.3974 28.4145 69.5952 29.8224 70.6186C31.4121 71.7735 33.0814 72.8331 34.7826 73.8149C36.0379 74.5392 37.3848 75.112 38.721 75.6793C39.8157 76.1448 40.9503 76.523 42.0782 76.9066C42.954 77.2044 43.8325 77.5236 44.7361 77.7061C46.7637 78.1152 48.8271 78.3633 50.8401 78.8287C52.9062 79.3062 54.9909 79.262 57.0397 79.0688C59.4216 78.8435 61.7889 78.3432 64.127 77.8093C65.9688 77.3882 67.7788 76.7953 69.5635 76.1649C70.8878 75.6968 72.1763 75.0986 73.433 74.4641C74.8648 73.7398 76.3138 73.0115 77.6315 72.1034C79.7413 70.6481 81.8512 69.174 83.624 67.2801C83.9438 66.9394 83.9531 66.6228 83.6758 66.2741C82.2413 64.4727 81.2355 62.4688 80.8334 60.1765C80.0094 59.3288 80.5441 58.2625 80.4154 57.3048C80.361 56.901 80.6397 56.4544 80.7538 56.0238C80.9263 55.38 81.0696 54.7281 81.2567 54.0897C81.6867 52.629 82.2798 51.2421 83.1981 50.0201C83.4011 49.7492 83.344 49.1081 83.8748 49.2972C84.2198 49.4206 84.5237 49.8015 84.736 50.1382C85.231 50.9188 85.7166 51.7142 86.1001 52.5539C86.6774 53.8174 87.1498 55.1104 87.4404 56.4987C87.8053 58.2437 87.4921 59.9217 87.3448 61.6251C87.3196 61.9189 87.0953 62.1898 87.0303 62.4862C86.9879 62.6754 87.0688 62.8927 87.094 63.0965C87.309 63.0322 87.6248 63.0375 87.723 62.8927C89.0433 60.9464 90.3384 58.9841 91.6243 57.0151C91.9321 56.5429 91.6681 56.1754 91.3111 55.8508C90.6556 55.2553 89.9271 54.7174 89.379 54.0333C88.6373 53.1065 87.938 52.1166 87.3952 51.061C86.3801 49.0866 86.1532 46.9365 86.4239 44.7434C86.5247 43.9279 86.7198 43.1191 86.9361 42.3251C87.1126 41.6786 87.5186 41.59 88.0932 41.9535C90.1792 43.2761 91.688 45.111 92.6752 47.3644C93.0269 48.1665 93.1423 49.0732 93.4064 49.9182C93.4886 50.1798 93.7089 50.3957 93.8668 50.6331C94.0818 50.4748 94.306 50.3273 94.5077 50.1543C94.5847 50.0886 94.6298 49.9665 94.6564 49.8605C94.9947 48.5031 95.3676 47.1538 95.6476 45.783C95.9249 44.4188 95.7723 44.2297 94.4215 43.7817C91.3814 42.7757 89.3114 40.6592 88.0149 37.7928C87.5704 36.8096 87.5266 35.6427 87.2944 34.5602C87.1896 34.0693 87.0436 33.5865 86.9719 33.0915C86.9361 32.8501 86.9494 32.4343 87.0741 32.3712C87.3634 32.2264 87.796 32.111 88.0614 32.2304C88.8775 32.5966 89.6736 33.0325 90.4234 33.5261C92.4642 34.8714 94.0606 36.6124 94.9271 38.9624C95.0346 39.2535 95.1553 39.5472 95.3278 39.8007C95.4313 39.9523 95.6848 40.1454 95.8002 40.1065C95.9727 40.0475 96.1797 39.8141 96.2023 39.6331C96.2593 39.1703 96.2142 38.6968 96.2262 38.2274C96.2713 36.5937 96.1704 34.976 95.8374 33.3718C95.7458 32.9292 95.5547 32.7213 95.1089 32.6663C93.2073 32.4343 91.4093 31.8723 89.8395 30.7321C88.0216 29.411 86.6893 27.6941 85.9144 25.5547C85.8838 25.4715 85.8666 25.383 85.8467 25.2958C85.6529 24.428 85.8639 24.1155 86.7225 24.2402C88.7328 24.534 90.7246 24.9136 92.3514 26.3072C92.8981 26.7753 93.4913 27.1884 94.0632 27.6257L94.2623 27.5626C94.2424 27.1656 94.3007 26.7444 94.188 26.3769C93.9 25.4434 93.5537 24.5259 93.1914 23.6192C92.9472 23.0076 92.3063 22.691 91.6322 22.7594C88.1675 23.1095 85.1832 22.0298 82.719 19.5711C82.0516 18.9058 81.5128 18.089 81.0139 17.2788C80.446 16.356 80.8016 15.7779 81.895 15.7887C84.3552 15.8128 86.6468 16.4137 88.6638 17.9106C88.8138 18.0219 89.046 18.0219 89.241 18.0742C89.2424 17.8637 89.3061 17.6276 89.2357 17.4452C88.5232 15.6009 87.2679 14.1536 85.8467 12.8445C85.6476 12.6607 85.2814 12.6084 84.9881 12.5963C84.594 12.5802 84.1959 12.6607 83.8005 12.6996C80.8228 12.992 78.3042 11.9954 76.1546 9.93787C75.6331 9.43891 75.0824 8.97079 74.5264 8.47048C75.0001 7.87494 75.4393 7.61875 76.1638 7.67643C77.2586 7.76361 78.3706 7.67911 79.4706 7.60936C79.7068 7.59461 79.9271 7.32635 80.2907 7.08625C82.0025 8.29075 83.7859 9.56499 85.5919 10.8057C86.1877 11.2148 86.7185 11.6293 86.9348 12.3764C86.9799 12.532 87.3169 12.6782 87.52 12.6782C87.6354 12.6782 87.8464 12.3791 87.853 12.2087C87.9181 10.4865 88.6758 9.04724 89.59 7.65899C89.8886 7.20563 90.1394 6.72142 90.3875 6.29622C91.5128 6.59936 91.5168 7.53693 91.7888 8.19417C92.9817 11.0766 92.5611 13.8706 91.0656 16.5371C90.8175 16.9797 90.8361 17.2869 91.1386 17.7376C91.7954 18.7154 92.6447 19.5926 92.9207 20.8025C92.9539 20.9487 93.0415 21.0975 93.1436 21.2075C93.2697 21.3443 93.4369 21.4423 93.5868 21.5576C93.685 21.3779 93.8615 21.2022 93.8721 21.0171C93.9863 18.9662 94.8567 17.2104 95.921 15.5258C95.9926 15.4131 96.1227 15.3111 96.1359 15.1931C96.2355 14.3602 96.8127 14.0637 97.5359 13.9202C97.9087 14.7009 98.3466 15.4895 98.6704 16.3252C99.2132 17.7242 99.582 19.1687 99.452 20.6992C99.306 22.4093 98.8456 24.0363 98.0521 25.54C97.6035 26.3917 96.9547 27.1334 96.4332 27.9476C96.2819 28.185 96.1558 28.523 96.1983 28.7859C96.3191 29.5558 96.5061 30.319 96.7198 31.0702C96.7808 31.2861 97.0064 31.5892 97.1802 31.6067C97.4045 31.6281 97.7163 31.4591 97.8796 31.274C98.4037 30.6758 98.8509 30.0105 99.3737 29.411C100.689 27.9033 102.373 26.9617 104.209 26.2629C104.778 26.047 105.215 26.2991 105.151 26.9537C105.035 28.1448 104.89 29.3533 104.565 30.4988C104.187 31.8347 103.381 32.9721 102.496 34.0438C101.387 35.3851 99.9894 36.3455 98.5072 37.1932C97.9645 37.5044 97.7349 37.8773 97.7455 38.5318C97.7668 39.9818 97.6832 41.4331 97.6633 42.8844C97.658 43.2613 97.7362 43.6409 97.776 44.0191C97.8397 44.0258 97.9048 44.0325 97.9685 44.0379C98.3758 43.4759 98.7686 42.9005 99.1959 42.3532C100.832 40.2581 102.954 38.886 105.462 38.0959C105.734 38.0101 105.985 37.8599 106.253 37.7579C106.968 37.4856 107.374 37.7579 107.391 38.5171C107.42 39.8141 107.041 41.0039 106.542 42.1896C105.297 45.1458 102.959 46.9982 100.329 48.5313C99.2025 49.1885 97.9525 49.6285 96.7689 50.1878C96.5898 50.2723 96.3867 50.4427 96.3244 50.6197C95.7033 52.3983 95.1102 54.1862 94.4945 56.0131C94.8037 56.2908 95.0797 56.2103 95.4167 55.9045C96.3336 55.0715 97.2068 54.1527 98.2405 53.4981C99.8514 52.4788 101.615 51.7115 103.558 51.6364C105.125 51.5761 106.696 51.6498 108.266 51.6793C108.475 51.6834 108.682 51.7746 108.932 51.8363C108.637 53.3667 107.493 54.2104 106.568 55.207C104.922 56.9788 102.751 57.8118 100.543 58.5254C99.7811 58.7722 98.9279 58.7346 98.1144 58.8044C96.9799 58.9023 95.8493 59.247 94.7041 58.8808C94.4547 58.8017 94.1322 58.7909 93.973 58.6233C93.5032 58.1257 93.2033 58.4395 92.9817 58.8151C92.2785 60.0129 91.615 61.2335 91.0072 62.6325C91.2501 62.5775 91.5062 62.5547 91.7331 62.4621C93.0574 61.9269 94.3339 61.1664 95.7073 60.882C97.3315 60.5454 99.0367 60.591 100.71 60.5212C101.346 60.4944 101.989 60.591 102.625 60.6661C103.473 60.7654 103.721 61.2469 103.223 61.9484C102.049 63.6022 100.783 65.1809 99.0141 66.2419C96.3549 67.8354 93.5377 68.8937 90.3875 68.8132C89.2623 68.785 88.0733 69.0211 87.0263 68.7273C85.7777 68.3759 85.2296 69.0814 84.5104 69.7454C82.455 71.642 80.2933 73.4005 77.8743 74.8102C76.5964 75.5546 75.3332 76.3339 74.0089 76.9844C72.6275 77.6645 71.1931 78.2426 69.7573 78.8019C68.4874 79.2968 67.1949 79.7422 65.8918 80.1378C65.0293 80.4007 64.1363 80.5939 63.2446 80.72C61.5195 80.9627 59.7573 81.0124 58.0601 81.3745C56.4784 81.7125 54.9046 81.6938 53.3189 81.7461C52.6448 81.7675 51.9495 81.9714 51.3776 81.4C51.3258 81.3477 51.2104 81.3544 51.1228 81.3437C49.5676 81.1532 48.0004 81.0365 46.4612 80.7562C45.0785 80.504 43.7144 80.1177 42.3662 79.7086C41.0618 79.3116 39.7507 78.8958 38.5113 78.3324C36.5076 77.4217 34.4933 76.5002 32.609 75.3682C30.5496 74.1315 28.6069 72.6869 26.6669 71.2597C25.8176 70.6347 25.1024 69.8219 24.3222 69.1002C23.8604 68.6724 23.4702 68.3773 22.7059 68.7032C22.0358 68.9902 21.1812 68.9044 20.4116 68.8749C18.5618 68.8038 16.6974 68.887 14.9021 68.2485C12.8811 67.5296 10.8429 66.8254 9.26381 65.2963C8.20489 64.2702 7.23754 63.1368 6.31265 61.9819C5.73011 61.2549 5.9756 60.7734 6.88722 60.6795C7.89837 60.5749 8.83918 59.8653 9.88217 60.202C11.8036 60.8203 13.9321 60.4837 15.7566 61.5514C16.4002 61.9283 17.1008 62.2099 17.7869 62.5104C17.9461 62.5801 18.1478 62.5506 18.3309 62.5654C18.3203 62.3763 18.3707 62.1523 18.2885 62.002C17.7869 61.0886 17.2534 60.1913 16.7319 59.2886C16.6324 59.1155 16.5156 58.9492 16.4427 58.7668C16.2542 58.2947 16.0061 58.3376 15.5589 58.4838C14.7229 58.7561 13.8458 58.9546 12.9727 59.027C12.3264 59.082 11.6603 58.8298 11.0021 58.8191C8.71312 58.7789 6.69481 57.8628 4.79062 56.7428C3.34026 55.8897 2.12476 54.6839 1.21447 53.2192C0.661123 52.3285 0.922534 51.6968 1.92572 51.6673C3.44907 51.6217 5.00294 51.4969 6.49311 51.7303C9.29831 52.1689 11.793 53.364 13.7224 55.5678C13.8684 55.7354 13.9904 55.9635 14.1749 56.0453C14.37 56.1325 14.6353 56.1164 14.8477 56.06C14.9034 56.0453 14.9326 55.6898 14.8769 55.5262C14.2638 53.7423 13.6375 51.9637 12.9926 50.1918C12.9289 50.0175 12.7404 49.827 12.5679 49.7653C11.4772 49.371 10.3108 49.1376 9.28902 48.6118C7.41137 47.646 5.71817 46.3664 4.40979 44.675C3.04434 42.9099 2.1314 40.9221 2.00135 38.6351C1.95226 37.7593 2.28665 37.4803 3.11998 37.7405C6.34715 38.7478 9.11386 40.4231 11.026 43.3351C11.1216 43.4799 11.3657 43.5255 11.5409 43.6181C11.6377 43.4223 11.8288 43.2197 11.8129 43.0333C11.7426 42.1695 11.5687 41.3137 11.5223 40.4499C11.4878 39.8128 11.5528 39.1636 11.647 38.5305C11.7333 37.9497 11.6178 37.5138 11.0764 37.2496C8.82326 36.1551 7.10352 34.4529 5.76992 32.3578C4.69906 30.6745 4.24657 28.8101 4.50665 26.7914C4.57035 26.2964 4.75082 26.0912 5.23914 26.2669C7.74311 27.167 9.79194 28.684 11.3219 30.8891C11.5356 31.1976 11.6683 31.5638 11.8846 31.8682C12.0955 32.1633 12.3636 32.2143 12.5334 31.8146C12.6794 31.4699 12.8121 31.1144 12.909 30.7523C13.0695 30.1554 13.2314 29.5545 13.3217 28.9442C13.3575 28.696 13.2911 28.3326 13.1266 28.1716C11.7028 26.782 11.1521 24.9431 10.4859 23.1497C10.0215 21.901 9.98169 20.6321 10.0334 19.331C10.0852 18.0005 10.6531 16.8443 11.1494 15.6585C11.2848 15.3339 11.3445 14.9705 11.5183 14.6727C11.6855 14.3856 11.9177 14.0476 12.1964 13.947C12.3702 13.8853 12.7829 14.1657 12.9183 14.395C13.5234 15.4225 14.0873 16.4754 14.6274 17.5404C15.2046 18.6805 15.5854 19.8863 15.604 21.1861C15.604 21.2679 15.6491 21.3497 15.6744 21.4315C15.746 21.4651 15.8177 21.4986 15.8893 21.5308L15.8906 21.5214Z" fill="white"/>
    <path d="M54.6844 48.8206C54.6844 50.3631 54.6924 51.9056 54.6805 53.4481C54.6765 53.9069 54.7362 54.4192 54.1377 54.6084C53.4145 54.8364 52.4936 54.6781 52.1778 54.2046C51.513 53.208 50.9013 52.1739 50.2312 51.18C49.5491 50.1686 48.8365 49.1774 48.1054 48.201C47.966 48.0145 47.6808 47.9394 47.4631 47.8133C47.3928 48.0333 47.2641 48.2519 47.2614 48.4719C47.2402 50.1043 47.2468 51.7366 47.2415 53.3677C47.2389 54.3374 46.927 54.6607 45.9849 54.6808C44.6765 54.709 44.504 54.5239 44.512 53.1866C44.5306 50.2827 44.5372 47.3774 44.5518 44.4735C44.5544 43.9235 44.4324 43.3092 45.0215 42.9699C45.5231 42.6801 46.7771 42.9162 47.1898 43.4071C48.2182 44.6291 49.2094 45.8818 50.206 47.1319C50.482 47.4793 50.6916 47.8831 50.9862 48.2103C51.1521 48.3954 51.4294 48.4799 51.6563 48.6087C51.7519 48.3793 51.9244 48.1527 51.9284 47.922C51.9509 46.6933 51.9257 45.4633 51.927 44.2334C51.927 43.7438 51.8673 43.0812 52.4445 42.9967C53.0894 42.9014 53.7874 43.057 54.4363 43.2167C54.577 43.2515 54.6685 43.7639 54.6725 44.0577C54.6951 45.6444 54.6831 47.2325 54.6844 48.8193V48.8206Z" fill="white"/>
    <path d="M39.9778 49.9088C40.6692 51.0422 41.3552 52.1528 42.024 53.2741C42.158 53.4981 42.2602 53.757 42.3146 54.0118C42.3942 54.3793 42.2244 54.5913 41.8396 54.661C40.1583 54.9708 39.5599 54.6623 38.7119 53.1359C38.3032 52.3996 37.8069 51.7128 37.3438 51.0086C37.2589 50.8812 37.1594 50.731 37.0307 50.672C36.744 50.5405 36.3765 50.3138 36.1496 50.4037C35.9386 50.4869 35.778 50.9241 35.7541 51.2179C35.6944 51.9502 35.7356 52.6906 35.7196 53.4283C35.6984 54.4196 35.3414 54.7361 34.3515 54.6664C33.2634 54.5899 32.9065 54.2197 32.9065 53.1413C32.9038 50.1918 32.9025 47.2422 32.9091 44.2927C32.9118 43.2639 33.1214 42.9782 34.1405 42.8293C35.9744 42.5611 37.8136 42.5906 39.5811 43.1995C40.9067 43.6556 41.8316 44.7675 41.8515 46.3141C41.8688 47.6674 41.5914 48.7834 40.3839 49.5225C40.2353 49.6137 40.1185 49.7558 39.9898 49.8766C39.9752 49.89 39.9739 49.9168 39.9778 49.9047V49.9088ZM35.7382 46.6145C35.7528 48.2361 35.8271 48.3046 37.446 48.1503C37.5336 48.1423 37.6212 48.1342 37.7074 48.1181C38.4426 47.9826 39.1246 47.2288 39.1166 46.5662C39.1074 45.9076 38.5288 45.3698 37.6902 45.2464C37.5376 45.2236 37.385 45.2075 37.231 45.1954C35.8337 45.0801 35.7249 45.1847 35.7369 46.6145H35.7382Z" fill="white"/>
    <path d="M68.0785 48.736C68.0785 47.172 68.0931 45.608 68.0705 44.0441C68.0625 43.4351 68.3067 42.9965 68.876 42.9147C71.0535 42.6035 73.2151 42.4533 75.3104 43.4351C76.6798 44.0776 77.0819 45.2204 77.139 46.5832C77.2 48.0546 76.7037 49.3409 75.3555 49.9767C74.4625 50.3978 73.4168 50.5628 72.4216 50.6648C70.9619 50.8136 70.9553 50.7452 70.9301 52.2274C70.9221 52.6968 70.9221 53.1663 70.9036 53.6344C70.8757 54.3212 70.5572 54.639 69.8699 54.6726C69.627 54.6846 69.3829 54.6833 69.1414 54.6686C68.4314 54.6256 68.105 54.297 68.0984 53.562C68.0851 51.9537 68.0944 50.3442 68.0944 48.736C68.0891 48.736 68.0851 48.736 68.0798 48.736H68.0785ZM70.9195 46.9547C70.9115 48.2678 71.0694 48.414 72.3712 48.2839C72.5676 48.2638 72.764 48.2316 72.9577 48.19C73.8534 47.9996 74.3842 47.3893 74.3484 46.5993C74.3139 45.8226 73.7831 45.3398 72.8383 45.2244C71.0721 45.0098 70.9288 45.1399 70.9182 46.9534L70.9195 46.9547Z" fill="white"/>
    <path d="M56.5005 48.9973C56.3307 46.6661 57.1375 44.7453 59.1292 43.4738C60.906 42.3404 62.862 42.4101 64.8272 42.9171C64.9334 42.9439 65.0316 43.003 65.1351 43.0419C65.9644 43.353 66.1462 43.6173 65.9803 44.2678C65.764 45.1169 65.3699 45.4133 64.5711 45.3154C64.0443 45.251 63.5215 45.1531 62.9934 45.1128C60.5053 44.9264 59.6574 46.045 59.2659 48.1348C59.0855 49.0965 59.3256 50.0462 59.7715 50.8523C60.0568 51.3687 60.6473 51.8663 61.2046 52.042C62.3511 52.4055 63.5626 52.6054 64.6799 51.806C65.2744 51.3808 65.979 51.7523 66.0507 52.4941C66.0547 52.5383 66.0547 52.5839 66.06 52.6282C66.2444 54.4698 66.1674 54.1425 64.7582 54.5422C63.0809 55.0197 61.2909 55.0747 59.6149 54.3638C57.7877 53.5886 56.8217 52.1212 56.5695 50.1575C56.5218 49.7819 56.5231 49.3997 56.5005 48.9959V48.9973Z" fill="white"/>
    <path d="M68.7613 31.0955C68.2756 31.0955 67.786 31.0607 67.3056 31.1103C67.0601 31.1358 66.8306 31.3155 66.5944 31.4255C66.7722 31.6575 66.9102 32.0291 67.1344 32.0948C67.6958 32.2585 68.2969 32.2973 68.8847 32.3577C69.0758 32.3778 69.2775 32.3094 69.4739 32.2759C70.3112 32.131 70.4837 32.2209 70.5991 32.8647C70.7531 33.7178 70.5447 34.1269 69.7698 34.1953C68.8077 34.2798 67.8099 34.3911 66.8717 34.2315C65.3099 33.9659 64.0678 32.7655 64.0068 30.9762C63.9617 29.655 63.9842 28.3539 65.002 27.3587C66.3635 26.0281 68.2597 25.8899 69.8826 26.8624C70.5753 27.2782 70.9123 28.0186 71.0715 28.7992C71.4365 30.5872 71.5824 31.2444 69.2908 31.0929C69.1143 31.0808 68.9378 31.0915 68.7613 31.0915V31.0955ZM67.5962 29.4645C67.851 29.4779 68.0394 29.5329 68.1973 29.486C68.4097 29.4229 68.6963 29.325 68.7679 29.1614C68.8316 29.0138 68.7003 28.6316 68.5623 28.5712C68.1668 28.3995 67.7103 28.2225 67.307 28.2775C67.0429 28.3137 66.6634 28.7295 66.6355 29.0071C66.5877 29.4779 67.0615 29.4565 67.4144 29.4645C67.502 29.4658 67.5896 29.4645 67.5962 29.4645Z" fill="white"/>
    <path d="M79.2236 4.8374C78.9516 5.50001 78.5229 5.64085 77.9192 5.6167C77.0421 5.58183 76.1583 5.64219 75.2785 5.69718C72.8568 5.84875 70.8943 4.78643 69.0909 3.31368C68.7021 2.99579 68.3107 2.639 68.0439 2.21917C67.6366 1.57803 67.821 1.17698 68.5588 1.01066C71.011 0.458037 73.3823 0.694107 75.5718 1.9764C76.6891 2.63095 77.7215 3.4344 78.7711 4.19894C78.9715 4.34514 79.0776 4.62548 79.2223 4.83606L79.2236 4.8374Z" fill="white"/>
    <path d="M33.9246 5.85735C33.0289 5.67225 32.1107 5.5569 31.2455 5.27657C30.5767 5.05928 30.5223 4.60189 31.0226 4.10963C32.4928 2.6637 34.2099 1.71674 36.1659 0.99914C37.8737 0.37275 39.3891 0.780507 40.9854 1.03938C41.8015 1.17217 41.9488 1.57054 41.418 2.23851C40.5528 3.32765 39.4554 4.115 38.2134 4.74004C36.8599 5.42143 35.4758 5.83857 33.9512 5.68969C33.9419 5.74468 33.9339 5.79968 33.9246 5.85467V5.85735Z" fill="white"/>
    <path d="M42.0095 24.0087C43.1135 24.0087 44.2188 24.006 45.3229 24.01C45.8417 24.0127 46.2186 24.1468 46.2159 24.8041C46.2119 25.7215 46.0421 26.0394 45.3428 26.0971C44.881 26.1347 44.4152 26.1065 43.9521 26.1159C43.1984 26.1306 43.0498 26.2634 43.0458 27.0172C43.0378 28.9152 43.0432 30.8131 43.0511 32.7111C43.0578 34.0578 42.807 34.2777 41.5039 34.1865C40.8789 34.1436 40.7263 33.8029 40.7276 33.2664C40.7303 31.5468 40.7263 29.8273 40.725 28.1077C40.725 27.6839 40.713 27.2587 40.7276 26.8348C40.7449 26.356 40.5219 26.128 40.0601 26.1239C39.5307 26.1186 38.9999 26.1038 38.4704 26.1199C37.8202 26.1387 37.7088 25.7175 37.6942 25.2011C37.669 24.336 37.8083 24.069 38.4333 24.0516C39.6249 24.0181 40.8178 24.0422 42.0108 24.0422C42.0108 24.0315 42.0108 24.0194 42.0108 24.0087H42.0095Z" fill="white"/>
    <path d="M51.6858 28.3852C51.6858 27.402 51.7004 26.4189 51.6805 25.437C51.6699 24.9059 51.8437 24.5732 52.4037 24.5276C52.4687 24.5223 52.5337 24.4995 52.5974 24.482C53.9111 24.1225 54.0212 24.2044 54.0889 25.5953C54.1247 26.3263 54.2813 26.4765 55.0218 26.49C55.2421 26.494 55.4637 26.4886 55.6839 26.5007C56.5518 26.5503 56.7986 26.8159 56.6473 27.6864C56.6088 27.9117 56.3156 28.2001 56.0887 28.2578C55.6919 28.3597 55.2553 28.3114 54.836 28.3155C54.3769 28.3208 54.1102 28.5743 54.1062 29.0103C54.0956 29.8566 54.134 30.7057 54.1685 31.552C54.1845 31.9544 54.4127 32.1503 54.8174 32.1409C55.2367 32.1328 55.6574 32.1462 56.0767 32.1382C56.4867 32.1301 56.6592 32.3354 56.7176 32.7364C56.8915 33.9476 56.7057 34.2373 55.4982 34.3004C54.629 34.346 53.7572 34.4385 52.9504 33.8645C52.0547 33.2287 51.7999 32.3246 51.6951 31.3321C51.6433 30.8465 51.6818 30.3502 51.6805 29.858C51.6805 29.3671 51.6805 28.8748 51.6805 28.3839H51.6858V28.3852Z" fill="white"/>
    <path d="M20.9498 75.3132C20.9472 76.4668 19.9944 77.5908 18.9581 77.7303C17.8739 77.8765 17.6802 78.0696 17.5223 79.1896C17.4758 79.5209 17.5369 79.8978 17.3976 80.1768C17.2649 80.4424 16.9583 80.7415 16.689 80.7858C16.3187 80.8461 15.9976 80.5564 16.0494 80.1191C16.1197 79.5249 16.2537 78.9388 16.3705 78.3513C16.4952 77.7235 16.5602 77.124 16.0454 76.6022C15.8092 76.3635 15.634 76.3004 15.3846 76.5405C14.9533 76.955 14.538 77.3923 14.0695 77.7598C13.8599 77.9247 13.5374 77.9435 13.2667 78.028C13.1845 77.745 13 77.4419 13.0465 77.1817C13.1009 76.8799 13.3304 76.5928 13.5321 76.3393C14.0629 75.674 14.6189 75.0289 15.1669 74.3783C15.2532 74.2764 15.358 74.1932 15.4509 74.098C15.9843 73.5561 16.5098 73.0089 17.0499 72.4737C17.5316 71.9962 18.1606 72.0096 18.6555 72.2886C19.7211 72.8881 20.4589 73.8311 20.918 74.9819C20.9657 75.1 20.9445 75.2462 20.9498 75.3119V75.3132ZM18.0345 76.3366C19.0098 76.3326 19.4955 75.8162 19.4397 75.1442C19.392 74.5634 18.4604 73.6245 18.0053 73.7023C17.9204 73.7171 17.8182 73.7345 17.7585 73.7882C17.3697 74.1449 16.9583 74.4843 16.6266 74.8907C16.5138 75.0289 16.5178 75.4769 16.6239 75.548C17.1401 75.894 17.7081 76.1609 18.0358 76.3366H18.0345Z" fill="white"/>
    <path d="M79.752 2.30609C79.9258 1.85943 79.9789 1.32693 80.2018 1.24109C80.5362 1.11232 81.0298 1.20219 81.3854 1.36181C83.62 2.36645 84.9085 4.22952 85.7299 6.46414C85.9011 6.93091 85.9091 7.47146 85.9223 7.98116C85.9356 8.48817 85.6012 8.71619 85.1261 8.52975C83.3082 7.81349 81.6734 6.81958 80.7445 5.00748C80.3079 4.15575 80.0731 3.19806 79.752 2.30609Z" fill="white"/>
    <path d="M29.5399 2.30339C29.2506 4.70701 28.1213 6.55935 25.9863 7.73836C25.5431 7.98382 25.0693 8.17294 24.6089 8.38621C23.9494 8.69069 23.4358 8.37146 23.5234 7.63374C23.5977 7.02076 23.7636 6.40108 23.9972 5.82968C24.7973 3.87137 26.0592 2.31412 27.9926 1.38593C28.0125 1.37654 28.0298 1.36045 28.0497 1.35106C29.0515 0.823924 29.5584 1.14718 29.5399 2.30339Z" fill="white"/>
    <path d="M57.9581 88.2401C59.5093 88.0201 60.5549 89.2796 60.9159 90.354C61.3657 91.6886 60.9252 93.2982 59.8158 93.9849C59.4151 94.2331 58.8617 94.2854 58.3721 94.3162C57.3517 94.3819 57.2176 94.5322 57.5348 95.4778C57.6741 95.8936 57.345 96.4958 56.8686 96.6367C56.4281 96.7668 56.2715 96.4891 56.1003 96.1176C55.8456 95.5663 55.8907 95.0969 55.9968 94.4933C56.1454 93.6456 55.8854 92.7295 55.8336 91.8402C55.7898 91.0864 55.7513 90.3272 55.7938 89.5747C55.8323 88.8813 56.4108 88.3648 57.1234 88.2817C57.3862 88.2508 57.6529 88.2549 57.9581 88.2414V88.2401ZM57.1101 91.1642C57.1208 91.1642 57.1327 91.1642 57.1433 91.1642C57.1433 91.4981 57.0664 91.8576 57.1632 92.1607C57.2747 92.5135 57.4698 92.9642 57.755 93.0983C58.0457 93.2351 58.5393 93.1359 58.8591 92.9709C59.9857 92.3874 59.7747 90.354 58.9586 89.8564C58.5552 89.6109 57.9581 89.5479 57.4857 89.627C57.3065 89.6565 57.2203 90.3178 57.1168 90.6974C57.077 90.8422 57.1101 91.0086 57.1101 91.1642Z" fill="white"/>
    <path d="M77.25 81.4533C77.526 81.1931 77.7383 80.9235 78.0104 80.7505C78.3885 80.5117 78.8118 80.3481 79.2139 80.1469C79.7142 79.8961 80.2078 79.6305 80.7134 79.3877C81.1221 79.1919 81.5056 79.2254 81.7391 79.664C81.9713 80.1026 81.7192 80.4085 81.3636 80.5962C80.8965 80.843 80.4082 81.0603 79.9106 81.2374C79.2431 81.4748 79.129 81.6706 79.3546 82.3775C79.3957 82.5049 79.4249 82.6364 79.4674 82.7625C79.6624 83.3459 79.9809 83.4519 80.5316 83.1353C80.9522 82.8926 81.3623 82.6002 81.8174 82.4553C82.0974 82.3654 82.5778 82.3936 82.7449 82.5774C83.0647 82.9261 82.794 83.2963 82.4437 83.5082C81.9727 83.7926 81.491 84.0689 80.9854 84.2808C80.4891 84.4887 80.4705 84.7664 80.7359 85.1607C80.7479 85.1795 80.7678 85.1929 80.781 85.2103C82.0602 86.8226 81.4299 86.4323 83.4204 85.5913C83.6831 85.4799 83.9326 85.2975 84.2033 85.2613C84.4262 85.2318 84.8535 85.3404 84.8694 85.441C84.9119 85.7093 84.8641 86.0728 84.7009 86.2753C84.5045 86.5195 84.1608 86.6469 83.8702 86.8038C83.1696 87.1821 82.4689 87.5603 81.7577 87.9171C81.1274 88.2336 80.8195 88.1344 80.4772 87.4731C80.1003 86.7461 79.7858 85.9843 79.4063 85.2586C79.1104 84.6926 78.7442 84.1641 78.4283 83.6088C78.0515 82.9449 77.6972 82.2702 77.2527 81.4547L77.25 81.4533Z" fill="white"/>
    <path d="M58.1667 30.4098C58.1667 29.5393 58.1614 28.6675 58.168 27.797C58.1734 26.9734 58.391 26.6877 59.1845 26.5992C60.185 26.4865 61.1895 26.3792 62.194 26.3712C62.6399 26.3671 63.1043 26.5683 63.1123 27.2108C63.1242 28.076 62.9385 28.2852 62.0759 28.2584C61.0683 28.228 60.5654 28.7216 60.5672 29.7392C60.5672 30.945 60.5499 32.1508 60.5659 33.3567C60.5738 33.9227 60.3323 34.1454 59.7803 34.1789C58.3153 34.2661 58.1853 34.1628 58.1667 32.6874C58.1614 32.3078 58.1667 31.9282 58.1667 31.5486C58.1667 31.169 58.1667 30.7894 58.1667 30.4098C58.1667 30.4098 58.1654 30.4098 58.1641 30.4098H58.1667Z" fill="white"/>
    <path d="M20.1843 80.5566C19.7822 81.4955 20.0304 82.1407 20.9393 82.6665C21.1304 82.7765 21.3931 82.8355 21.4993 83.0005C21.6559 83.2446 21.7037 83.5611 21.7965 83.8468C21.4887 83.9461 21.0933 84.2224 20.8876 84.1178C18.7299 83.0192 17.7719 81.301 19.6707 79.1214C20.1471 78.5742 20.6009 77.9236 21.4396 77.8056C22.6352 77.6393 23.511 78.043 24.1572 79.1281C24.6084 79.886 24.469 81.0381 23.8241 81.8858C23.4871 82.3285 22.9603 82.3741 22.4852 82.0253C21.8987 81.5948 21.3056 81.1736 20.7045 80.7632C20.5651 80.6679 20.3847 80.6331 20.1856 80.5553L20.1843 80.5566ZM22.6405 80.6317C22.7374 80.5915 22.8356 80.5512 22.9324 80.511C22.8674 80.1368 22.8966 79.7035 22.7148 79.4031C22.4786 79.0128 21.6811 79.0973 21.0229 79.5372C21.5856 79.9181 22.1137 80.2749 22.6405 80.6317Z" fill="white"/>
    <path d="M62.0664 91.5884C62.0823 90.6307 62.5415 90.074 63.5141 89.7776C63.8007 89.6904 64.0781 89.5429 64.3249 89.3712C64.4403 89.2907 64.5598 89.0479 64.5173 88.9473C64.4629 88.8213 64.2453 88.6911 64.1006 88.6938C63.7769 88.7005 63.4557 88.8172 63.1306 88.8333C62.8599 88.8467 62.5561 88.8427 62.3225 88.73C62.1805 88.6616 62.0757 88.3692 62.0823 88.1814C62.0876 88.0312 62.2562 87.8086 62.4021 87.7536C62.8891 87.5698 63.3934 87.4209 63.9016 87.3056C64.7018 87.1258 65.6917 87.7227 66.0473 88.5262C66.594 89.7655 66.5887 91.0867 66.6192 92.3985C66.6298 92.8371 66.4056 93.1684 65.9239 93.2315C65.0454 93.3468 64.2015 93.8337 63.2779 93.4367C62.3928 93.0558 62.0518 92.5555 62.0677 91.587L62.0664 91.5884ZM64.4218 92.2872C64.6885 92.251 65.2087 92.3502 65.1834 91.7024C65.1675 91.2973 65.1848 90.8091 64.5584 90.8037C64.0277 90.7983 63.4584 91.2316 63.4717 91.6675C63.4876 92.204 63.8419 92.318 64.4218 92.2872Z" fill="white"/>
    <path d="M28.3814 86.5679C28.1811 84.9959 29.9406 83.0443 31.3843 83.1234C32.9687 83.2093 33.9361 84.1777 33.9998 85.7685C34.0741 87.6088 32.3278 89.4074 30.9571 89.327C29.7402 89.2559 28.1718 88.1922 28.3801 86.5692L28.3814 86.5679ZM31.46 84.4714C31.3432 84.5063 31.1428 84.5372 30.9703 84.6257C30.0799 85.0858 29.7694 85.8718 29.7907 86.8348C29.8092 87.7067 30.4157 88.1506 31.2543 87.9052C32.1181 87.6517 32.8984 86.2487 32.6343 85.3849C32.4711 84.8524 32.1274 84.5063 31.46 84.4714Z" fill="white"/>
    <path d="M89.5204 76.2019C90.1069 76.1429 90.6231 76.3307 91.0185 76.8229C91.7245 77.7042 92.4715 78.5559 93.1085 79.4854C93.2717 79.7228 93.2213 80.3278 93.0289 80.5518C92.5618 81.0923 91.9739 81.5376 91.3954 81.9655C90.7266 82.4604 89.6345 82.3773 89.0944 81.7616C88.4084 80.9783 88.07 80.3841 88.7707 79.3835C89.0214 79.0253 89.389 78.7504 89.661 78.4043C89.7884 78.242 89.9331 77.8839 89.8681 77.8182C89.7062 77.6532 89.401 77.4882 89.2019 77.5352C88.8795 77.6116 88.6088 77.8906 88.2916 78.022C88.0156 78.1361 87.7051 78.1642 87.4105 78.2299C87.3972 77.9201 87.2619 77.5392 87.3919 77.3138C87.8471 76.5251 88.5676 76.1362 89.5204 76.2006V76.2019ZM90.4559 80.9005C91.0703 80.7717 91.8771 80.2352 91.7417 79.9871C91.5626 79.6598 91.2202 79.3137 90.8792 79.2158C90.4294 79.087 89.7884 79.7617 89.8906 80.2218C89.9477 80.478 90.2582 80.6751 90.4546 80.8991L90.4559 80.9005Z" fill="white"/>
    <path d="M49.7006 94.277C47.8813 94.277 46.8463 93.5017 46.776 92.0183C46.7455 91.3771 46.8291 90.7266 46.9047 90.0868C46.9591 89.6267 47.0347 89.1559 47.1993 88.728C47.2869 88.4987 47.6133 88.1794 47.7778 88.2089C48.0286 88.2545 48.3843 88.5402 48.4241 88.7709C48.497 89.1935 48.3617 89.6495 48.3312 90.0935C48.2887 90.6917 48.2409 91.2913 48.2343 91.8895C48.229 92.3697 48.509 92.6648 48.9548 92.819C49.8877 93.1423 50.3389 92.7721 50.4198 91.5139C50.457 90.9452 50.4437 90.347 50.3057 89.7997C50.1385 89.1385 50.4251 88.7052 50.8484 88.3471C50.9878 88.2291 51.4097 88.2586 51.5623 88.3887C52.0069 88.7683 52.2922 89.3571 52.0042 89.8789C51.5424 90.7158 51.6101 91.5796 51.5729 92.4622C51.4947 94.273 51.4708 94.2784 49.6993 94.2784L49.7006 94.277Z" fill="white"/>
    <path d="M49.6611 30.2322C49.6611 31.1711 49.7115 32.1127 49.6358 33.0449C49.6067 33.407 49.3519 33.9717 49.0905 34.0455C48.6008 34.1837 48.0262 34.0603 47.4994 33.9704C47.4026 33.9543 47.3097 33.5854 47.3084 33.3789C47.2911 31.3683 47.2991 29.3576 47.2871 27.347C47.2845 26.8051 47.5738 26.5865 48.0568 26.5409C48.1881 26.5288 48.3222 26.5315 48.4549 26.5315C49.5576 26.5369 49.665 26.6442 49.6677 27.7508C49.6703 28.577 49.6677 29.4046 49.6677 30.2308H49.6624L49.6611 30.2322Z" fill="white"/>
    <path d="M39.9613 88.0926C39.5354 89.3414 39.132 90.5982 38.6556 91.8268C38.5919 91.9891 38.1049 92.1353 37.9006 92.0575C37.5436 91.9221 37.3472 91.5921 37.5012 91.1307C37.809 90.2092 38.1076 89.281 38.3451 88.3394C38.4194 88.0443 38.3889 87.6352 38.2363 87.3844C37.7281 86.5501 36.8801 86.6118 36.5166 87.5078C36.2167 88.2442 36.0176 89.0222 35.7615 89.7773C35.67 90.0496 35.6076 90.3809 35.4152 90.5539C35.2214 90.7283 34.8725 90.8222 34.6137 90.786C34.489 90.7685 34.2966 90.3447 34.3403 90.1529C34.5381 89.2676 34.7756 88.3864 35.0649 87.5266C35.252 86.9726 35.5319 86.4455 35.8133 85.9304C35.8955 85.7789 36.1344 85.6045 36.2843 85.6179C37.1323 85.6997 38.0213 85.7038 38.8056 85.9881C39.68 86.306 39.8273 86.8318 39.7928 88.0363C39.8486 88.0551 39.9056 88.0739 39.9613 88.0926Z" fill="white"/>
    <path d="M45.7723 89.6228C45.5679 90.6918 45.3808 91.7648 45.1499 92.8271C45.0385 93.3382 44.6032 93.3596 44.1932 93.3006C43.6438 93.2228 43.7128 92.7936 43.7778 92.4194C43.9424 91.459 44.1574 90.5067 44.2954 89.5423C44.3312 89.2928 44.2356 88.9025 44.0578 88.771C43.7487 88.5403 43.2948 88.2962 42.9697 88.3686C42.7017 88.429 42.431 88.9119 42.3381 89.2566C42.0833 90.1995 41.9068 91.1653 41.729 92.127C41.6348 92.634 41.3389 92.8003 40.8798 92.7346C40.4153 92.6675 40.3185 92.3215 40.4021 91.9365C40.7059 90.5241 40.974 89.0996 41.3933 87.7221C41.4968 87.3801 42.1284 86.9804 42.504 86.9925C43.255 87.0179 44.0393 87.2124 44.7319 87.5169C45.5838 87.8925 45.7776 88.7201 45.7723 89.6228Z" fill="white"/>
    <path d="M97.2678 76.501C97.2558 76.7183 97.2784 76.8149 97.2439 76.8471C96.6587 77.3943 96.1252 78.0315 95.4564 78.4459C94.8912 78.796 94.2821 78.4178 93.8561 77.9698C92.9432 77.0107 92.0833 76.0007 91.1743 75.0363C90.8758 74.7198 90.4803 74.4971 90.1526 74.2034C89.8023 73.8895 89.7558 73.5166 90.0796 73.1478C90.4432 72.7333 90.7829 72.9264 91.104 73.2162C91.8312 73.8734 91.8325 73.8774 92.5172 73.129C92.8384 72.7776 93.2298 72.5603 93.5987 72.9479C93.9437 73.3114 93.7009 73.6896 93.3904 73.9941C92.565 74.8043 92.5663 74.8606 93.3983 75.6654C93.7805 76.0356 94.1494 76.4192 94.5488 76.7706C94.9814 77.1516 95.3795 77.0872 95.7338 76.6231C95.8797 76.4326 96.0509 76.2368 96.254 76.1255C96.4663 76.0101 96.7834 75.884 96.9586 75.9685C97.1404 76.0557 97.208 76.3884 97.2651 76.4997L97.2678 76.501Z" fill="white"/>
    <path d="M86.9374 84.7381C86.254 84.8306 85.7644 84.4524 85.4034 83.9722C84.7147 83.0507 84.0964 82.0756 83.4502 81.1219C83.1516 80.682 82.7946 80.2688 82.5823 79.79C82.4616 79.5164 82.451 79.0174 82.6195 78.8296C82.8955 78.5211 83.3559 78.6284 83.5948 78.9866C84.0207 79.6237 84.456 79.3876 84.9284 79.0885C85.2376 78.8927 85.5879 78.5547 85.8904 79.0308C86.1757 79.4828 85.9661 79.8893 85.5759 80.1951C84.7997 80.8027 84.7983 80.7987 85.3742 81.6276C85.6649 82.0447 85.9117 82.4994 86.2407 82.8817C86.7344 83.4531 87.1471 83.4907 87.7376 83.0534C88.064 82.812 88.4355 82.5638 88.7195 82.9354C89.0181 83.3257 88.9026 83.834 88.4873 84.1171C88.0282 84.4282 87.5027 84.6402 87.0064 84.895C86.9825 84.8427 86.96 84.7904 86.9361 84.7381H86.9374Z" fill="white"/>
    <path d="M23.9141 84.3874C23.9167 82.9549 25.3299 81.1777 26.7126 80.8665C27.4026 80.7109 28.9605 81.3842 29.2856 81.9784C29.5351 82.4345 29.2843 82.861 28.7601 82.8114C28.4616 82.7832 28.1444 82.6893 27.887 82.5364C27.0006 82.0093 26.5945 82.3137 26.0027 82.8932C24.9743 83.9005 25.1959 85.1359 26.4406 85.8923C26.8334 86.1311 27.1306 86.4584 26.8944 86.9345C26.6476 87.4308 26.2044 87.2269 25.8488 87.0754C24.6704 86.5737 23.9114 85.498 23.9141 84.3887V84.3874Z" fill="white"/>
    <path d="M76.2009 90.3943C75.4379 90.2656 74.7983 89.674 74.5183 88.8988C73.9451 87.312 73.3214 85.744 72.7442 84.1586C72.6022 83.7696 72.504 83.3431 72.5 82.9313C72.4974 82.7314 72.7256 82.4135 72.9087 82.3599C73.0773 82.3103 73.4395 82.4913 73.5205 82.6644C74.0181 83.728 74.4666 84.8145 74.9191 85.8983C75.2694 86.7379 75.5799 87.595 75.9541 88.4239C76.0523 88.6399 76.3655 88.7472 76.5021 88.9578C76.6906 89.2448 76.9161 89.5855 76.9055 89.8967C76.9002 90.0697 76.4504 90.228 76.1996 90.3943H76.2009Z" fill="white"/>
    <path d="M69.601 86.1967C69.7231 86.2825 70.0588 86.3925 70.1597 86.6125C70.3402 87.0068 70.0151 87.1946 69.6767 87.3274C69.0822 87.5608 68.8142 87.9685 68.9867 88.6405C69.195 89.4587 69.3662 90.2863 69.544 91.1125C69.5811 91.2856 69.605 91.468 69.5957 91.6437C69.5745 92.0488 69.7085 92.5826 69.1485 92.6926C68.5328 92.8147 68.1732 92.2459 68.1586 91.8328C68.1082 90.3802 67.669 89.0349 67.2828 87.6681C67.1276 87.1195 67.8534 86.6245 68.631 86.3294C68.8712 86.2382 69.1525 86.253 69.5997 86.1953L69.601 86.1967Z" fill="white"/>
    <path d="M47.1508 24.205C47.1707 23.4243 47.6431 23.026 48.5295 23.0394C49.3987 23.0528 49.7676 23.4498 49.7344 24.3364C49.7092 25.0339 49.1346 25.5973 48.4539 25.5906C47.7267 25.5838 47.1322 24.9521 47.1508 24.205Z" fill="white"/>
    <path d="M76.5139 83.3642C76.4913 83.5654 76.486 83.949 76.3891 84.3098C76.3507 84.4506 76.1198 84.5982 75.9565 84.625C75.8278 84.6465 75.577 84.5204 75.5399 84.4064C75.3223 83.7438 75.1245 83.0718 74.9746 82.3904C74.8897 82.0068 75.0847 81.7332 75.5041 81.709C75.9207 81.6849 76.3294 81.7117 76.4117 82.2509C76.4595 82.5594 76.4701 82.8733 76.5139 83.3642Z" fill="white"/>
  </g>
  <defs>
    <clipPath id="clip0_12147_12466">
      <rect width="108" height="96" fill="white" transform="translate(0.927734 0.667969)"/>
    </clipPath>
  </defs>
</svg>