<svg xmlns="http://www.w3.org/2000/svg" width="49" height="48" viewBox="0 0 49 48" fill="none">
  <path fill-rule="evenodd" clip-rule="evenodd" d="M17.422 23.7232C17.422 27.5195 20.4966 30.5941 24.293 30.5941C28.0894 30.5941 31.1639 27.5196 31.1639 23.7232H17.422ZM46.2107 18.8659H34.7843C34.2557 17.053 33.2764 15.4502 31.9849 14.1727C33.54 12.4068 35.8176 11.2926 38.3555 11.2926C42.5278 11.2926 45.9967 14.3038 46.7081 18.2715C46.7215 18.3443 46.7187 18.4191 46.6998 18.4907C46.681 18.5623 46.6466 18.6288 46.5991 18.6856C46.5516 18.7423 46.4921 18.7879 46.425 18.8191C46.3579 18.8503 46.2847 18.8663 46.2107 18.8659ZM46.793 23.7232V26.7681L43.0644 28.2032C42.5913 30.1895 41.8044 32.0877 40.7333 33.8261L42.3562 37.4799L38.0498 41.7863L34.3972 40.164C32.6583 41.2353 30.7597 42.0224 28.7728 42.4954L27.338 46.2231H21.248L19.8127 42.4946C17.8265 42.0215 15.9283 41.2345 14.1899 40.1635L10.5361 41.7863L6.22969 37.48L7.85203 33.8273C6.78064 32.0885 5.99356 30.1898 5.52047 28.203L1.79297 26.7682V23.7232H13.672C13.672 29.5894 18.4267 34.3441 24.2929 34.3441C30.1591 34.3441 34.9138 29.5895 34.9138 23.7232H46.793ZM24.2932 2.03528C26.9261 2.03528 29.0605 4.16978 29.0605 6.80266C29.0605 9.43553 26.926 11.57 24.2932 11.57C21.6602 11.57 19.5257 9.43553 19.5257 6.80266C19.5257 4.16978 21.6601 2.03528 24.2932 2.03528ZM15.5653 20.9222L33.0207 20.9222C33.103 20.9225 33.1843 20.9047 33.2589 20.8701C33.3334 20.8355 33.3995 20.7848 33.4523 20.7217C33.505 20.6586 33.5433 20.5847 33.5642 20.5052C33.5852 20.4257 33.5883 20.3425 33.5735 20.2616C32.7751 15.8103 28.8856 12.5076 24.2931 12.5076C19.6572 12.5076 15.8032 15.8533 15.0127 20.2616C14.9978 20.3425 15.0009 20.4257 15.0219 20.5052C15.0428 20.5847 15.081 20.6587 15.1338 20.7217C15.1866 20.7848 15.2526 20.8355 15.3272 20.8702C15.4018 20.9048 15.4831 20.9226 15.5653 20.9222ZM10.2306 1.77344C12.6003 1.77344 14.5214 3.69447 14.5214 6.06428C14.5214 8.434 12.6003 10.3551 10.2306 10.3551C7.86075 10.3551 5.93972 8.434 5.93972 6.06428C5.93972 3.69447 7.86075 1.77344 10.2306 1.77344ZM2.37534 18.8659C2.30132 18.8663 2.22814 18.8503 2.16101 18.8191C2.09388 18.7879 2.03444 18.7423 1.98695 18.6855C1.93945 18.6287 1.90505 18.5622 1.8862 18.4906C1.86736 18.419 1.86452 18.3442 1.87791 18.2714C2.58938 14.3037 6.05822 11.2925 10.2306 11.2925C12.7686 11.2925 15.046 12.4067 16.6012 14.1726C15.3096 15.4502 14.3302 17.0529 13.8017 18.8658L2.37534 18.8659ZM38.3556 1.77344C40.7253 1.77344 42.6464 3.69447 42.6464 6.06428C42.6464 8.434 40.7253 10.3551 38.3556 10.3551C35.9858 10.3551 34.0647 8.434 34.0647 6.06428C34.0647 3.69447 35.9858 1.77344 38.3556 1.77344Z" fill="#272727"/>
</svg>