<svg width="17" height="17" viewBox="0 0 17 17" fill="none" xmlns="http://www.w3.org/2000/svg">
<path d="M8.3609 8.33381C8.35828 8.33106 8.35753 8.32741 8.35484 8.32472L5.67972 5.64956V3.96866C5.67972 3.84413 5.63028 3.72513 5.5424 3.63722L2.7299 0.793502C2.66433 0.727967 2.5808 0.683339 2.48987 0.665257C2.39894 0.647174 2.30469 0.656449 2.21903 0.691908C2.13335 0.727337 2.06012 0.787403 2.00862 0.864493C1.95711 0.941583 1.92965 1.03223 1.92972 1.12494V2.53119H0.492216C0.399509 2.53111 0.308866 2.55857 0.23178 2.61007C0.154693 2.66157 0.094634 2.7348 0.0592159 2.82047C0.0236643 2.90612 0.0143438 3.00039 0.032436 3.09134C0.0505282 3.18229 0.0952183 3.26582 0.160841 3.33135L3.00459 6.17506C3.0481 6.21861 3.09976 6.25316 3.15662 6.27672C3.21349 6.30029 3.27444 6.31242 3.336 6.31241H5.0169L7.69203 8.98753C7.69472 8.99022 7.69837 8.99097 7.70112 8.9936C7.88362 9.16778 8.16084 9.1701 8.34578 8.9936C8.54053 8.80772 8.53615 8.51741 8.3609 8.33381Z" fill="#272727"/>
<path d="M8.02338 0.65625C6.82397 0.65625 5.68994 0.961406 4.66875 1.43806L6.10669 2.876C6.71019 2.67531 7.35341 2.5625 8.02341 2.5625C11.3834 2.56247 14.1171 5.29622 14.1171 8.65619C14.1171 12.0162 11.3834 14.7499 8.02338 14.7499C4.66337 14.7499 1.92966 12.0162 1.92966 8.65619C1.92966 7.98619 2.0425 7.34297 2.24316 6.73947L0.805219 5.30153C0.328625 6.32275 0.0234375 7.45678 0.0234375 8.65619C0.0234375 13.0502 3.62934 16.6562 8.02338 16.6562C12.4174 16.6562 16.0233 13.0502 16.0233 8.65619C16.0233 4.26216 12.4175 0.65625 8.02338 0.65625Z" fill="#272727"/>
<path d="M8.02341 4.4375C7.52794 4.4375 7.05919 4.53906 6.61716 4.69666V5.26147L7.70081 6.34512C7.80725 6.33025 7.91294 6.3125 8.02341 6.3125C9.31569 6.3125 10.3672 7.36397 10.3672 8.65625C10.3672 9.94853 9.31569 11 8.02341 11C6.73113 11 5.67966 9.94853 5.67966 8.65625C5.67966 8.54575 5.69741 8.44006 5.71228 8.33366L4.62866 7.24997H4.06384C3.90625 7.692 3.80469 8.16075 3.80469 8.65622C3.80469 10.9826 5.69709 12.8749 8.02341 12.8749C10.3497 12.8749 12.2422 10.9826 12.2422 8.65622C12.2422 6.32987 10.3498 4.4375 8.02341 4.4375Z" fill="#272727"/>
</svg>
